<?xml version="1.0" standalone="no"?>
<!DOCTYPE svg PUBLIC "-//W3C//DTD SVG 20010904//EN"
 "http://www.w3.org/TR/2001/REC-SVG-20010904/DTD/svg10.dtd">
<svg version="1.0" xmlns="http://www.w3.org/2000/svg"
 width="1364.000000pt" height="1364.000000pt" viewBox="0 0 1364.000000 1364.000000"
 preserveAspectRatio="xMidYMid meet">
<metadata>
Created by potrace 1.14, written by Peter Selinger 2001-2017
</metadata>
<g transform="translate(0.000000,1364.000000) scale(0.100000,-0.100000)"
fill="#000000" stroke="none">
<path d="M0 6820 l0 -6820 6820 0 6820 0 0 6820 0 6820 -6820 0 -6820 0 0
-6820z m8344 5509 c13 -7 30 -25 37 -41 13 -32 150 -155 204 -185 31 -17 154
-135 376 -360 48 -49 98 -110 112 -138 15 -30 68 -93 129 -155 57 -58 146
-153 197 -212 51 -60 96 -108 100 -108 17 0 103 -84 122 -119 44 -80 125 -164
190 -195 55 -27 66 -38 93 -88 34 -63 137 -163 202 -196 23 -12 53 -35 65 -52
54 -70 94 -112 121 -126 30 -15 232 -208 448 -427 64 -64 137 -130 162 -146
25 -16 62 -50 84 -75 21 -25 64 -64 94 -85 60 -42 167 -157 213 -229 21 -32
43 -50 81 -67 41 -18 83 -56 211 -190 88 -92 171 -188 185 -214 18 -32 39 -53
72 -71 65 -35 85 -56 101 -104 23 -68 115 -182 166 -207 42 -21 147 -122 197
-190 36 -49 41 -93 15 -144 -12 -23 -26 -80 -32 -124 -5 -45 -19 -106 -30
-134 -17 -42 -20 -65 -15 -117 9 -90 -17 -224 -52 -270 -24 -31 -27 -44 -28
-122 -2 -81 -4 -92 -34 -138 -26 -40 -34 -66 -40 -123 -4 -40 -26 -151 -50
-247 -23 -96 -47 -192 -52 -213 -5 -21 -25 -56 -45 -77 -42 -48 -83 -166 -86
-255 -2 -43 -12 -79 -34 -125 -96 -202 -98 -210 -123 -390 -11 -80 -16 -96
-46 -137 -16 -21 -34 -77 -54 -170 -56 -250 -100 -467 -100 -498 0 -56 -88
-299 -138 -385 -25 -43 -62 -188 -62 -245 0 -23 -7 -64 -15 -91 -37 -119 -65
-276 -59 -328 5 -42 2 -63 -16 -102 -29 -67 -60 -215 -60 -294 0 -83 -33 -203
-69 -255 -34 -49 -43 -74 -46 -140 -2 -28 -17 -94 -34 -146 -17 -52 -40 -132
-52 -178 -27 -104 -67 -151 -128 -151 -21 0 -90 -18 -152 -41 -161 -58 -316
-99 -372 -99 -31 0 -77 -11 -124 -30 -41 -17 -93 -33 -116 -36 -98 -14 -243
-58 -272 -82 -47 -39 -93 -55 -141 -47 -34 5 -56 1 -106 -20 -104 -44 -188
-66 -284 -74 -83 -7 -94 -10 -137 -43 -36 -28 -60 -37 -104 -42 -195 -22 -488
-93 -552 -133 -38 -25 -219 -73 -271 -73 -25 0 -80 -11 -121 -25 -41 -14 -101
-28 -134 -32 -33 -3 -90 -18 -127 -34 -36 -16 -71 -29 -76 -29 -5 0 -34 -11
-63 -24 -40 -18 -87 -27 -184 -35 -137 -12 -172 -19 -244 -46 -33 -12 -61 -14
-106 -10 -56 6 -70 4 -133 -24 -39 -17 -85 -31 -104 -31 -55 0 -110 -20 -157
-55 -45 -36 -191 -89 -272 -100 -27 -3 -68 -20 -100 -41 -55 -35 -106 -54
-147 -54 -13 0 -58 -14 -100 -31 -63 -25 -103 -33 -224 -45 -130 -12 -153 -17
-200 -43 -34 -19 -92 -37 -163 -51 -127 -26 -179 -19 -218 28 -31 38 -77 82
-126 121 -24 18 -51 52 -61 75 -12 27 -71 93 -173 192 -84 83 -173 178 -195
210 -23 33 -59 70 -79 84 -138 91 -378 322 -418 401 -27 53 -296 334 -409 427
-113 93 -134 116 -145 159 -13 49 -55 88 -105 97 -27 5 -57 28 -119 87 -45 45
-125 119 -179 165 -53 46 -131 122 -175 169 -43 47 -103 101 -133 120 -40 24
-66 51 -94 95 -23 36 -58 74 -85 93 -64 43 -158 134 -183 176 -11 20 -62 77
-112 126 -50 50 -125 125 -166 168 -42 43 -95 87 -120 99 -27 13 -90 66 -155
131 -60 60 -134 123 -163 139 -29 17 -69 51 -90 77 -20 25 -84 96 -141 156
-57 61 -117 133 -133 162 -29 51 -58 80 -125 126 -112 78 -133 102 -133 152 0
13 13 39 29 57 41 48 51 71 51 125 1 63 41 204 73 252 26 38 36 71 57 171 6
30 22 71 36 91 13 19 29 62 35 95 6 32 19 102 30 154 10 52 19 113 19 135 0
22 9 77 20 123 11 46 25 115 31 154 6 39 18 90 26 112 21 57 62 164 78 206 8
19 14 51 15 71 0 19 20 104 45 188 31 104 51 193 60 278 12 101 22 140 52 211
21 48 47 103 59 122 13 19 29 60 38 90 8 30 36 129 62 220 25 91 52 194 60
229 8 36 25 81 39 101 29 42 45 91 45 138 0 19 13 73 30 120 16 48 34 115 40
149 15 87 52 197 89 267 23 42 31 71 31 107 0 27 11 96 24 152 14 56 34 153
45 215 18 104 27 132 59 187 50 87 91 257 92 380 0 52 6 83 24 121 29 62 63
211 71 314 14 159 31 182 129 173 56 -5 67 -3 116 25 36 19 82 34 129 42 49 7
93 21 127 41 31 17 119 47 215 73 90 24 213 58 274 76 93 27 119 31 172 25 55
-6 83 -1 250 44 103 28 227 60 276 72 56 14 100 31 122 49 43 34 71 44 165 60
201 33 313 60 361 85 58 30 205 71 280 78 57 5 93 20 139 57 17 14 51 23 105
30 44 5 107 18 140 30 66 23 211 55 292 64 28 4 71 15 95 26 64 28 218 60 291
60 45 0 74 6 102 21 63 34 92 39 146 27 57 -13 72 -8 294 97 148 71 199 89
221 81 30 -11 89 13 127 52 23 23 56 44 80 51 23 7 91 28 150 47 96 30 116 33
177 28 63 -6 73 -5 107 18 52 34 97 48 153 48 49 0 226 41 257 59 24 14 56 14
87 0z"/>
<path d="M4428 9589 c-388 -41 -748 -263 -963 -594 -65 -99 -87 -143 -130
-255 -71 -186 -100 -421 -75 -616 35 -282 140 -515 328 -731 46 -52 82 -96 80
-98 -1 -1 -37 -19 -79 -39 -116 -55 -273 -152 -389 -241 -213 -163 -446 -424
-471 -528 -28 -120 27 -242 135 -300 l41 -22 792 -3 c702 -2 797 -1 830 13 63
26 102 58 135 108 29 46 31 54 44 229 27 356 85 580 225 859 171 343 419 616
763 842 89 59 120 86 140 120 39 66 48 128 30 217 -85 419 -403 798 -797 951
-215 83 -422 111 -639 88z"/>
<path d="M8915 9588 c-376 -42 -730 -259 -942 -575 -135 -201 -226 -466 -202
-587 17 -91 49 -129 175 -213 344 -226 592 -499 763 -842 140 -279 198 -503
225 -859 13 -175 15 -183 44 -229 33 -50 72 -82 135 -108 33 -14 128 -15 830
-13 l792 3 41 22 c80 43 144 145 144 230 0 69 -22 120 -88 209 -178 238 -495
494 -781 630 -42 20 -78 38 -80 40 -1 1 31 41 73 89 362 406 446 961 221 1452
-132 287 -392 535 -690 658 -209 87 -435 119 -660 93z"/>
<path d="M6615 7999 c-513 -66 -979 -398 -1212 -864 -221 -441 -226 -950 -14
-1391 104 -216 247 -399 435 -556 l29 -25 -59 -27 c-308 -141 -656 -425 -870
-711 -147 -197 -258 -396 -270 -486 -14 -103 52 -219 150 -265 l51 -24 1965 0
1965 0 50 24 c55 25 109 80 133 135 8 20 16 65 16 101 1 54 -5 77 -32 134
-141 298 -418 632 -697 842 -121 91 -301 201 -409 250 l-58 26 68 62 c38 33
86 79 107 101 589 614 590 1583 3 2193 -314 326 -714 495 -1161 491 -66 -1
-151 -6 -190 -10z"/>
</g>
</svg>
