<?xml version="1.0" standalone="no"?>
<!DOCTYPE svg PUBLIC "-//W3C//DTD SVG 20010904//EN"
 "http://www.w3.org/TR/2001/REC-SVG-20010904/DTD/svg10.dtd">
<svg version="1.0" xmlns="http://www.w3.org/2000/svg"
 width="1364.000000pt" height="1364.000000pt" viewBox="0 0 1364.000000 1364.000000"
 preserveAspectRatio="xMidYMid meet">
<metadata>
Created by potrace 1.14, written by Peter Selinger 2001-2017
</metadata>
<g transform="translate(0.000000,1364.000000) scale(0.100000,-0.100000)"
fill="#000000" stroke="none">
<path d="M3875 10239 c-666 -69 -1239 -560 -1405 -1204 -42 -161 -53 -252 -53
-420 0 -272 52 -494 174 -738 78 -155 156 -264 282 -393 l69 -72 -98 -46
c-301 -143 -615 -375 -837 -621 -210 -233 -255 -313 -244 -442 9 -121 79 -217
196 -272 l56 -26 950 -3 c940 -2 950 -2 1019 19 58 17 78 30 126 77 81 81 95
127 104 322 12 272 49 476 132 730 129 392 358 757 660 1051 139 134 234 209
411 325 145 96 178 127 212 205 42 96 35 187 -30 389 -237 730 -959 1199
-1724 1119z"/>
<path d="M9417 10239 c-564 -65 -1048 -407 -1292 -913 -92 -191 -154 -413
-140 -505 18 -122 66 -182 240 -296 175 -115 271 -190 409 -324 302 -294 531
-659 660 -1051 82 -250 120 -462 132 -740 8 -184 24 -232 104 -312 48 -47 68
-60 126 -77 69 -21 79 -21 1019 -19 l950 3 56 26 c116 55 187 152 196 272 11
129 -34 209 -244 442 -222 245 -536 478 -836 620 l-98 47 83 87 c228 241 377
548 429 886 16 103 16 357 0 460 -94 608 -509 1112 -1082 1313 -216 76 -490
107 -712 81z"/>
<path d="M6560 8275 c-796 -109 -1443 -688 -1639 -1465 -151 -598 -12 -1231
376 -1710 59 -72 222 -236 292 -293 18 -15 32 -29 30 -31 -2 -2 -59 -31 -127
-65 -556 -278 -1040 -766 -1303 -1315 -39 -80 -43 -96 -43 -165 0 -61 6 -88
26 -133 33 -71 94 -133 167 -167 l56 -26 2425 0 2425 0 56 26 c73 34 134 96
167 167 20 45 26 72 26 133 0 69 -4 85 -43 165 -264 550 -750 1040 -1307 1317
-68 34 -124 64 -123 67 0 3 22 22 49 44 62 49 224 213 283 286 476 593 560
1434 211 2115 -291 569 -855 967 -1490 1050 -138 18 -382 18 -514 0z"/>
</g>
</svg>
