<?xml version="1.0" standalone="no"?>
<!DOCTYPE svg PUBLIC "-//W3C//DTD SVG 20010904//EN"
 "http://www.w3.org/TR/2001/REC-SVG-20010904/DTD/svg10.dtd">
<svg version="1.0" xmlns="http://www.w3.org/2000/svg"
 width="1364.000000pt" height="1364.000000pt" viewBox="0 0 1364.000000 1364.000000"
 preserveAspectRatio="xMidYMid meet">
<metadata>
Created by potrace 1.14, written by Peter Selinger 2001-2017
</metadata>
<g transform="translate(0.000000,1364.000000) scale(0.100000,-0.100000)"
fill="#000000" stroke="none">
<path d="M8385 12710 c-4 -6 -11 -8 -16 -5 -5 4 -9 2 -9 -2 0 -8 -59 -37 -72
-35 -3 1 -28 -5 -55 -13 -56 -17 -111 -26 -168 -30 -57 -3 -115 -16 -115 -25
0 -11 -70 -43 -102 -48 -15 -1 -50 1 -78 6 -29 5 -53 6 -56 1 -3 -5 -9 -7 -14
-4 -5 3 -11 1 -15 -5 -4 -6 -10 -8 -14 -5 -5 2 -23 -2 -40 -11 -17 -8 -72 -26
-123 -40 -50 -14 -96 -29 -102 -33 -6 -5 -30 -28 -54 -50 -23 -22 -46 -40 -50
-40 -4 1 -9 0 -12 -1 -3 -1 -30 -3 -60 -5 -68 -4 -73 -5 -135 -34 -27 -13 -66
-31 -85 -40 -19 -9 -43 -22 -52 -30 -10 -8 -18 -10 -18 -5 0 5 -4 4 -8 -3 -4
-6 -16 -13 -27 -15 -11 -1 -22 -6 -25 -9 -14 -17 -136 -56 -164 -53 -73 9
-112 11 -121 5 -5 -3 -15 -6 -21 -7 -6 -1 -24 -10 -39 -20 -35 -23 -44 -25
-130 -28 -38 -2 -70 -4 -70 -5 0 -2 -59 -11 -85 -13 -8 0 -19 -4 -25 -8 -5 -4
-26 -10 -46 -14 -20 -3 -55 -15 -78 -27 -23 -11 -65 -22 -94 -25 -58 -5 -112
-12 -112 -14 0 -3 -83 -18 -120 -23 -11 -1 -22 -4 -25 -7 -18 -19 -140 -51
-205 -55 -27 -2 -52 -4 -55 -5 -3 -2 -9 -4 -15 -5 -20 -3 -85 -47 -85 -58 0
-6 -3 -7 -7 -4 -3 4 -12 2 -18 -3 -7 -6 -37 -12 -66 -15 -62 -6 -77 -8 -139
-25 -25 -7 -46 -12 -47 -11 -9 3 -121 -44 -135 -57 -10 -8 -18 -12 -18 -7 0 4
-6 3 -12 -3 -12 -9 -51 -20 -101 -27 -12 -2 -56 -10 -97 -18 -41 -9 -77 -14
-79 -11 -2 2 -10 -1 -16 -6 -7 -6 -36 -12 -65 -15 -75 -7 -126 -24 -151 -51
-13 -13 -28 -24 -35 -24 -7 0 -14 -4 -16 -9 -1 -5 -16 -11 -33 -14 -16 -3 -37
-8 -45 -11 -8 -3 -26 -8 -40 -11 -14 -2 -61 -14 -105 -25 -44 -12 -87 -23 -96
-25 -9 -2 -34 -9 -55 -15 -119 -36 -221 -57 -253 -53 -79 11 -113 8 -176 -17
-16 -6 -32 -11 -35 -11 -3 1 -30 -6 -60 -15 -30 -9 -61 -17 -67 -17 -7 0 -13
-5 -13 -10 0 -6 -2 -8 -5 -5 -5 4 -265 -60 -310 -76 -5 -2 -20 -7 -32 -11 -13
-4 -23 -11 -23 -15 0 -14 -101 -47 -165 -55 -33 -3 -63 -11 -66 -17 -3 -5 -10
-10 -15 -11 -5 0 -32 -11 -60 -24 -40 -18 -61 -22 -95 -17 -68 10 -82 7 -105
-21 -14 -18 -23 -48 -28 -93 -16 -166 -16 -164 -31 -222 -1 -6 -13 -64 -20
-98 -2 -13 -16 -49 -31 -80 -22 -46 -28 -74 -31 -147 -5 -131 -7 -165 -13
-165 -3 0 -7 -11 -8 -24 -1 -13 -15 -59 -32 -102 -31 -80 -39 -98 -66 -146
-12 -22 -25 -74 -39 -153 -2 -11 -6 -29 -8 -40 -3 -11 -8 -40 -11 -65 -3 -25
-17 -89 -31 -144 -14 -54 -23 -102 -20 -106 3 -5 1 -12 -5 -15 -8 -5 -8 -11
-1 -19 6 -7 8 -16 4 -19 -3 -4 -8 -21 -10 -39 -2 -17 -8 -37 -14 -45 -6 -7 -8
-13 -5 -13 4 0 -2 -9 -12 -20 -27 -29 -76 -181 -88 -270 -7 -45 -19 -87 -49
-169 -9 -25 -18 -61 -20 -80 -14 -116 -23 -149 -49 -170 -9 -7 -16 -20 -16
-27 0 -8 -5 -14 -11 -14 -5 0 -7 -5 -4 -10 4 -6 2 -16 -3 -23 -6 -7 -12 -28
-15 -47 -6 -41 -16 -88 -24 -110 -6 -16 -8 -23 -17 -55 -3 -11 -17 -60 -31
-110 -29 -99 -27 -94 -51 -185 -9 -36 -20 -67 -23 -70 -10 -8 -71 -136 -71
-149 0 -6 -4 -11 -10 -11 -5 0 -10 -8 -10 -18 0 -10 -4 -22 -9 -27 -10 -10
-16 -36 -27 -105 -2 -19 -7 -48 -11 -65 -3 -16 -7 -53 -8 -81 -2 -29 -11 -79
-21 -111 -20 -67 -21 -71 -27 -98 -3 -11 -13 -40 -22 -65 -9 -25 -18 -52 -20
-60 -2 -8 -4 -15 -5 -15 -1 0 -3 -18 -6 -40 -9 -84 -12 -101 -27 -140 -8 -22
-27 -71 -41 -110 -14 -38 -30 -79 -36 -90 -10 -20 -19 -65 -25 -122 -2 -17 -9
-51 -15 -75 -7 -24 -14 -54 -16 -68 -3 -14 -7 -32 -11 -40 -3 -8 -7 -46 -9
-85 -2 -38 -7 -81 -10 -95 -10 -38 -12 -43 -18 -75 -3 -16 -9 -43 -12 -60 -4
-16 -8 -41 -10 -55 -1 -14 -3 -25 -4 -25 0 0 -3 -17 -5 -37 -4 -34 -28 -85
-48 -99 -5 -3 -9 -10 -9 -15 0 -5 -5 -20 -10 -34 -9 -22 -12 -41 -23 -115 -1
-11 -4 -21 -5 -22 -1 -2 -3 -6 -5 -10 -4 -15 -26 -59 -46 -93 -30 -48 -61
-162 -65 -238 -4 -65 -18 -102 -52 -138 -26 -28 -41 -57 -38 -75 7 -36 27 -67
53 -84 15 -10 39 -29 52 -42 14 -13 39 -30 56 -39 39 -18 95 -71 95 -90 0 -8
5 -14 10 -14 6 0 10 -6 10 -13 0 -7 8 -22 17 -33 10 -11 41 -46 68 -79 28 -33
77 -87 110 -121 33 -33 78 -83 100 -111 22 -28 63 -63 90 -79 63 -35 163 -126
250 -226 17 -20 55 -47 85 -61 57 -28 178 -135 220 -197 30 -43 43 -55 105
-103 27 -20 67 -63 88 -95 43 -62 160 -178 231 -229 25 -18 57 -54 72 -80 30
-53 64 -87 109 -110 16 -9 83 -71 150 -139 66 -67 147 -145 180 -172 33 -27
105 -93 160 -146 95 -93 154 -134 175 -121 15 9 90 -71 90 -95 0 -40 28 -78
90 -121 105 -72 461 -438 507 -522 13 -23 59 -77 101 -119 42 -42 103 -104
136 -137 32 -34 65 -61 72 -61 8 0 14 -4 14 -9 0 -5 33 -31 73 -59 77 -54 106
-82 126 -121 15 -28 114 -135 190 -206 128 -119 182 -177 201 -217 21 -46 64
-98 80 -98 11 0 110 -93 110 -103 0 -10 35 -42 49 -45 6 -1 19 -3 29 -5 9 -1
22 -6 27 -9 11 -6 38 -4 80 6 11 2 20 5 20 6 0 2 20 6 60 13 59 9 120 29 145
47 45 31 99 42 290 54 61 4 111 15 135 30 28 18 84 36 128 42 46 7 71 12 75
14 1 2 5 3 10 5 22 6 50 21 77 40 43 31 64 39 130 50 22 3 47 8 55 11 8 3 26
8 39 10 14 3 29 8 35 12 6 4 13 7 16 8 3 0 14 4 25 8 11 4 34 13 50 18 17 6
35 16 40 22 26 30 81 60 114 62 20 2 36 4 36 4 0 1 16 3 36 4 19 2 62 16 95
32 50 24 73 29 154 31 113 2 130 4 130 13 0 8 74 33 98 33 9 0 23 5 31 11 12
9 13 8 6 -4 -8 -13 -7 -13 8 -1 10 7 17 9 17 3 0 -6 12 -9 28 -6 15 2 52 6 82
9 117 12 131 15 173 38 23 13 45 25 50 25 4 1 9 3 12 3 3 1 10 3 15 4 6 1 16
3 24 4 8 0 21 7 28 14 18 18 94 39 151 43 27 1 65 8 85 15 20 7 42 14 47 15 6
1 30 9 55 16 25 8 71 14 102 14 32 -1 58 2 58 5 0 4 17 10 37 14 21 4 42 10
48 13 5 4 12 7 15 7 34 5 79 21 115 42 25 13 45 22 45 19 0 -3 24 5 54 18 30
13 57 22 60 18 3 -3 6 -1 6 4 0 5 10 10 23 11 35 4 56 9 63 16 4 3 15 2 25 -4
14 -7 19 -6 19 2 0 7 3 10 6 6 3 -3 25 0 47 7 23 6 49 11 57 11 8 -1 22 2 31
6 9 5 36 11 60 14 98 12 115 15 138 19 14 3 41 19 60 34 46 37 68 44 155 47
39 2 82 7 96 13 14 5 27 10 30 10 20 0 102 28 149 50 42 19 74 26 131 28 98 2
93 1 116 22 38 35 79 60 111 67 18 3 34 6 35 5 2 -1 15 3 31 9 29 11 64 20
110 27 60 9 91 16 127 31 86 37 112 44 170 47 68 5 115 12 140 23 8 3 23 7 33
8 9 2 19 4 22 5 3 1 9 3 14 4 5 0 12 4 16 8 4 4 13 4 21 1 8 -3 14 1 14 8 0 7
3 9 7 6 3 -4 11 -3 17 2 12 10 178 69 216 78 14 3 42 6 63 7 68 4 116 77 143
221 8 41 10 48 17 65 31 81 59 183 60 218 0 24 4 45 8 47 4 3 5 13 2 23 -2 9
7 33 21 52 33 46 66 117 69 150 2 14 7 32 12 40 4 7 9 54 11 104 1 50 5 102 8
116 3 14 11 50 18 80 6 30 12 57 13 60 5 24 18 50 24 50 9 0 10 7 14 70 1 25
7 48 12 52 6 5 6 8 -1 8 -8 0 -11 20 -9 58 2 31 4 57 5 57 2 0 9 30 15 60 2
11 13 54 25 95 11 41 23 84 26 95 3 11 5 44 5 74 -1 30 3 59 9 66 5 6 12 31
15 53 7 54 33 132 50 149 13 13 55 115 55 133 0 6 4 10 8 10 10 0 37 77 35 97
0 7 4 13 10 13 6 0 7 3 4 6 -3 4 -2 15 4 26 12 23 18 47 25 108 5 42 15 101
29 175 4 17 8 39 10 50 2 11 7 31 10 45 3 14 8 39 10 55 2 17 8 41 13 55 5 14
10 28 10 33 1 17 18 105 21 110 2 1 4 12 7 25 2 12 6 32 8 45 3 12 5 22 6 22
1 0 3 8 5 17 8 42 27 87 39 91 17 7 43 96 50 170 3 32 8 62 10 66 3 4 8 30 11
57 7 46 41 143 56 154 3 3 12 22 18 43 7 21 24 58 38 83 19 33 27 64 29 110 2
55 26 152 51 214 3 8 5 19 4 24 -1 5 11 20 27 35 38 34 60 69 66 106 3 17 8
44 11 60 3 17 9 39 12 50 4 11 8 27 9 35 4 22 12 55 14 55 1 0 3 7 5 15 2 8
13 56 25 105 12 50 24 115 25 145 2 30 6 62 8 70 16 50 20 60 26 60 4 0 15 14
25 32 15 24 19 51 19 117 0 47 4 92 10 99 5 6 6 12 3 12 -4 0 3 10 15 23 31
33 44 72 54 167 2 19 5 35 6 35 6 0 5 82 -1 90 -13 19 1 104 26 154 8 15 17
55 20 87 6 74 24 154 33 154 4 0 12 14 19 32 9 24 9 41 0 70 -6 21 -15 38 -20
38 -4 0 -8 5 -8 11 0 6 -12 24 -27 40 -115 124 -143 150 -174 163 -19 8 -43
23 -54 33 -30 27 -85 100 -85 112 0 6 -4 11 -10 11 -5 0 -16 14 -25 30 -9 17
-13 30 -10 30 8 0 -20 52 -42 76 -10 12 -34 29 -53 37 -41 17 -80 49 -80 66 0
6 -4 11 -10 11 -5 0 -10 9 -10 20 0 11 -4 20 -10 20 -5 0 -10 5 -10 12 0 7
-36 46 -79 88 -44 42 -91 94 -105 115 -14 21 -26 35 -26 32 0 -3 -30 26 -66
64 -45 46 -82 74 -113 86 -51 19 -74 39 -112 98 -50 77 -157 188 -215 224 -21
14 -55 43 -74 66 -40 48 -105 102 -152 128 -18 9 -30 17 -27 17 6 0 -42 53
-124 138 -23 24 -76 73 -117 110 -84 75 -221 211 -262 259 -15 17 -48 44 -74
59 -52 31 -100 77 -110 108 -9 26 -51 64 -96 85 -63 30 -184 148 -213 207 -23
46 -85 110 -85 88 0 -5 -5 -3 -12 4 -7 7 -20 12 -29 12 -9 0 -36 24 -60 52
-24 29 -54 63 -66 75 -12 13 -34 43 -49 68 -14 25 -47 62 -72 83 -62 50 -139
127 -187 187 -22 28 -76 87 -120 132 -142 144 -183 190 -199 222 -9 17 -13 31
-9 31 5 0 0 5 -9 11 -10 5 -18 16 -18 23 0 7 -21 30 -47 52 -27 21 -64 57 -83
79 -85 96 -331 334 -364 351 -69 37 -184 144 -221 205 -11 19 -26 35 -33 35
-6 1 -21 2 -33 3 -11 0 -17 6 -14 11 3 6 4 10 1 10 -3 0 -8 -5 -11 -10z"/>
</g>
</svg>
