<svg xmlns="http://www.w3.org/2000/svg" fill="none" viewBox="0 0 375 394">
  <defs/>
  <g clipPath="url(#clip0)">
    <path fill="#FAB944" d="M257.623 271.713c5.614 15.491 10.111 31.21 14.921 46.749 4.761 14.734 7.468 30.238 12.229 44.972-1.147-1.627-2.607-3.074-3.821-4.455-5.034-5.835-9.51-11.784-15.991-16.16-6.907-4.753-16.032 4.677-11.508 11.431 4.458 7 11.054 11.934 17.205 17.541 6.151 5.606 11.924 11.639 18.009 17.492 4.626 4.406 12.017 2.429 13.913-3.661 2.753-9.29 3.242-19.979 4.271-29.731.784-9.818 1.255-19.456-.934-29.015-1.455-5.404-8.943-5.035-10.575.07-2.868 8.731-3.207 17.877-4.597 27.005-1.402-8.557-3.05-17.179-4.699-25.802-2.43-13.582-5.239-26.737-9.099-39.911-7.653-26.593-17.162-53.155-29.547-77.849-23.442-47.448-55.476-91.394-95.518-126.1373-21.817-19.0405-46.606-37.8219-74.6591-46.3942-4.1859-1.1216-5.8836 4.2291-2.7662 6.3839 26.7593 19.3093 54.5563 35.7299 78.4703 58.7626 23.488 22.655 44.016 48.476 61.044 76.525 17.569 28.986 32.13 60.332 43.652 92.184z"/>
  </g>
  <circle cx="71.5" cy="39.5" r="39.5" fill="#FAB944"/>
  <path fill="#D05C32" d="M77.1892 49.6984c.7796-.3464 1.4514-.8002 2.2242-1.2053 1.0548-.5528 2.148-.9989 3.1034-1.6181-.1567-.9051-.5396-1.9634-1.0626-3.1457-.4052-.9154-.8208-1.9573-1.4719-2.9802-.5546-.872-1.2788-1.7235-2.0271-2.6401-.6634-.8135-1.2715-1.7715-2.0985-2.597-.7742-.7727-1.6853-1.3315-2.4494-1.9613-.8138-.6492-1.6631-1.2526-2.5442-1.8074-.8688-.5682-1.775-1.077-2.7126-1.5232-.9122-.4445-1.867-.7958-2.8499-1.0487-.3542.5298-.8397.8899-1.1749 1.4545-.3614.6087-.7187 1.2465-1.0413 1.9116-.3137.6457-.5663 1.3195-.8692 1.9814 1.0176.4754 2.1343.9029 3.1608 1.5206.9945.6099 1.9526 1.2769 2.8696 1.9977.894.6922 1.6822 1.5614 2.5272 2.4048.682.681 1.2125 1.4669 1.8043 2.1855.6137.745 1.3113 1.398 1.8327 2.1672.5429.8013 1.1557 1.546 1.6048 2.355.4727.8518.7994 1.7108 1.1746 2.5487z"/>
  <path fill="#D05C32" d="M80.7014 30.6765c.8127.8113 1.5635 1.6464 2.2701 2.4803.7446.8789 1.3314 1.8361 1.9551 2.7274.6634.9483 1.3833 1.817 1.9075 2.7639.5639 1.0196 1.1579 1.9778 1.5537 2.9762.062-.0866.0569-.0484.1174-.1363.1725-.2498.2742-.5525.4354-.8112.3069-.4954.691-.9525.9372-1.4515.0315-.0721-.1055-.2668-.0589-.3777.0569-.1353.1121-.295.1907-.4611.0427-.1159.241-.1743.2794-.2927.1904-.5911.2534-1.2204.3649-1.8181.0089-.0793.1453-.1735.1544-.2626.0091-.089-.2239-.2072-.211-.2927.0013-.0183.0322-.025.0332-.0435.0332-.5358.1519-1.0744.1207-1.6146-.0041-.0497-.0701-.117-.0774-.192-.0088-.0875-.073-.1719-.0803-.2507-.0018-.0166.2286-.0465.2261-.0624-.0179-.1121-.1659-.204-.1875-.3156-.1142-.5705-.1255-1.2-.3169-1.7755-.0218-.0662-.3097-.0339-.3318-.0939-.005-.0137.0097-.0132.004-.027-.0368-.0862.0196-.2091-.0134-.2919-.033-.0827-.1211-.1463-.1473-.2092-.079-.1636-.0091-.459-.1276-.6699-.0509-.0909-.1043-.0641-.1581-.1533-.3352-.5417-.7336-1.0864-1.0988-1.6071-.1659-.2373-.3576-.4583-.5308-.6909-.0221-.029 0-.0472-.0231-.0749-.1386-.1621-.1124-.1843-.2509-.3465-.3631-.426-.6841-.8535-1.0301-1.2292-.0541-.0579-.2314.1116-.2868.055-.0414-.0425.0523-.2172.0102-.2593-.0113-.0112-.1674.1469-.1789.1358-.0114-.0111.1079-.1477.0986-.1571-.0166-.0166-.0211-.0452-.0375-.0623-.0222-.0228-.0939.0477-.1161.0252-.082-.0818-.1221-.2038-.2064-.2833-.0783-.074-.0663-.2455-.1441-.3202-.3676-.3311-.7796-.6353-1.1873-.9826-.1211-.1032-.2173.0091-.3384-.0942-.028-.024.0425-.1621.0184-.1821-.0154-.0113-.0706.0245-.0875.0125-.1034-.0743-.0656-.1266-.1689-.2011-.1445-.1043-.2685-.2398-.4147-.3421-.4486-.3137-1.075-.4847-1.6867-.8609-.0758-.0457-.0367-.1099-.1138-.1533-.2554-.1434-.49-.2929-.6878-.3851-.0861-.0403-.1979-.0066-.282-.0432-.112-.0371-.1692-.2274-.2808-.2649-.1117-.0376-.2903.1225-.4038.0872-.4731-.1744-.9547-.3249-1.443-.4508-.1102-.0219-.2036-.1517-.3162-.1696-.0166-.0024-.0331.1201-.0497.1184-.0788-.0073-.1556-.1397-.243-.149-.0757-.0074-.1536.0114-.2031.007-.541-.031-1.0842.1006-1.6177.1324-.0995.006-.2242-.1179-.3163-.1101-.0166.0013-.0056.2053-.0209.2065-.1475.0232-.3264-.1475-.4731-.1182-.5327.1058-1.0463.3359-1.577.5063-.1103.0352-.254-.0348-.3595.0036-.0332.0118-.0096.0709-.0419.0828-.0627.0261-.1303.0636-.2027.0925-.086.0345-.1619.1126-.2269.1396-.4223.1987-.846.4015-1.2607.6397-.4412.2534-.7975.4381-1.1695.6936.9226.4045 1.774.9373 2.7103 1.4805.8765.5084 1.7403 1.1018 2.6158 1.729.8275.5927 1.5661 1.3369 2.3817 2.0333.7744.6632 1.6456 1.2566 2.4018 2.0127z"/>
  <path fill="#D05C32" d="M63.2066 42.7666c-.2396-.193-.4792-.3915-.72-.5672-.3334-.2434-.5867-.3459-.9256-.5579-.0634-.0405-.1243-.0847-.1824-.1325-.0713-.048-.0859-.0632-.1972-.1386-.0012 0 .0015-.0021.0021-.0031-.3762-.2393-.7678-.4623-1.14-.6788-.1501.5487-.2719 1.0914-.45 1.6035-.1896.5167-.3467 1.0448-.4704 1.5811-.1125.5209-.3379 1.0217-.4313 1.5489-.093.5246-.0253 1.0761-.1041 1.6069-.0783.527-.2953 1.0361-.3641 1.5687-.0675.5232-.0207 1.055-.047 1.582-.0257.5204.005 1.046-.0091 1.5792-.0136.5187-.1557 1.0927-.1846 1.6316.4709-.0176.9952.0402 1.4525.0331.4694-.0079.9289-.1904 1.3882-.201.4666-.0111.9226-.0957 1.3825-.123.4644-.0278.9216-.028 1.3827-.0866.4654-.0584.9521.0364 1.414-.0387.462-.0752.8957-.307 1.3568-.3949.4612-.0879.9548-.0023 1.4144-.0993.4565-.0967.8853-.3303 1.3436-.4332.5292-.1185 1.0975-.2627 1.5963-.3854-.2103-.395-.5933-.7791-.8428-1.1755-.2387-.3793-.3533-.8522-.621-1.2366-.2576-.3695-.6549-.651-.9332-1.0286-.2674-.3626-.516-.7439-.8142-1.1014-.288-.3455-.5584-.7156-.8735-1.0596-.3047-.3323-.587-.6983-.9158-1.032-.3433-.3476-.765-.596-1.1077-.9094-.3604-.3295-.6354-.7378-.9952-1.0321-.065-.0533-.1292-.0994-.194-.1528"/>
  <path fill="#D05C32" d="M58.8869 33.1743c.3352-.7397.6436-1.4932 1.0176-2.2144.374-.7212.86-1.3792 1.2749-2.0775.4339-.7312.8738-1.4535 1.354-2.155.235-.3431.3491-.7702.5918-1.1076.0186-.0249.1468.0546.1634.0331.1658-.2098.3219-.425.4929-.6303.2762-.3323.6101-.7307.8999-1.0518-.6783-.3076-1.3788-.5639-2.0956-.7668-.8552-.2578-1.7431-.3088-2.6042-.3982-.8973-.0932-1.787-.3044-2.6393-.2152-.9066.0949-1.757.4156-2.5509.7162-.6104.2318-1.5238.5843-2.2807 1.2492-.6094.5355-1.042 1.3023-1.3155 2.2062-.3188 1.0904-.2454 2.2578.2077 3.2998.41 1.0685 1.0304 2.0442 1.8245 2.8694.622.621 1.4587 1.0219 2.2393 1.5043.747.4955 1.5415.9154 2.3719 1.2537.3269-.8974.6832-1.7095 1.0483-2.5151z"/>
  <path fill="#D05C32" d="M88.6554 57.0894c.289-.8312.4701-1.6959.5389-2.573.102-.873.1124-1.7542.031-2.6294-.0892-.8758-.2613-1.7412-.5142-2.5846-.2133-.7046-.5694-1.3106-.8791-1.9513-.1234.1109-.2322.0818-.3578.1907-.3023.2634-.5463.5926-.8514.8527-.1007.0742-.2092.1374-.3236.1884-.1371.1015-.2768.1975-.416.2965-.7548.5406-1.4711 1.1407-2.2634 1.625-.7924.4843-1.6727.8128-2.495 1.2437-.8191.4295-1.5902.8904-2.4013 1.2519-.8305.3702-1.677.7167-2.5244 1.0309.3122.8483.7066 1.6642 1.1777 2.436.4849.7553 1.0557 1.452 1.7011 2.0763.88.8783 1.7851 1.6179 2.7414 2.0081 1.0666.4626 2.2595.5479 3.3814.2418.9055-.2729 1.5183-.9338 2.0548-1.5421.5845-.6373 1.0577-1.368 1.3999-2.1616z"/>
  <path fill="#D05C32" d="M84.3489 22.3579c-.274.2828-.6261.4778-1.0115.5602-.3854.0823-.7866.0483-1.1525-.0979-.366-.1461-.68-.3976-.9022-.7226-.2221-.325-.3423-.7086-.3453-1.102-.0029-.3934.1116-.7787.3289-1.1069.2174-.3282.5276-.5844.8914-.7359.3637-.1515.7644-.1915 1.151-.1148.3865.0766.7415.2664 1.0196.5452.1845.1805.3315.3956.4324.6329.1009.2374.1539.4923.1558.7501.0019.2579-.0472.5136-.1447.7524-.0974.2388-.2411.4561-.4229.6393z"/>
  <path fill="#D05C32" d="M92.3508 30.3452c-.1804.1836-.3953.3297-.6324.4301-.2371.1004-.4917.153-.7492.1549-.2576.0019-.5129-.047-.7515-.1439-.2385-.0969-.4556-.2398-.6386-.4207-.1848-.1824-.3316-.3994-.432-.6386-.1004-.2392-.1525-.4959-.1532-.7553-.0007-.2593.05-.5163.1491-.756.0991-.2398.2447-.4576.4284-.641.1838-.1834.402-.3287.6422-.4277.2402-.0989.4977-.1494.7575-.1487.2598.0007.517.0527.7566.153.2397.1002.4571.2468.6398.4312.1814.1821.3249.3982.4222.6359.0974.2376.1467.4922.1452.7489-.0016.2568-.054.5107-.1543.7472-.1002.2365-.2463.4508-.4298.6307z"/>
  <defs>
    <clipPath id="clip0">
      <path fill="#fff" d="M0 0h286v311H0z" transform="rotate(105 142.134725 202.399704)"/>
    </clipPath>
  </defs>
</svg>