<svg width="1028" height="1032" viewBox="0 0 1028 1032" fill="none" xmlns="http://www.w3.org/2000/svg">
<path d="M0.293234 654.464C1.68993 660.617 5.042 659.499 9.23209 664.254C13.7015 669.009 15.3775 667.051 19.847 671.806C24.3164 676.561 22.6404 677.959 27.1098 682.714C31.5792 687.469 31.0205 687.749 35.49 692.504C39.9594 697.259 40.2387 696.979 44.4288 701.454C48.8982 706.209 48.0602 706.768 52.809 711.244C57.2784 715.719 58.9544 714.041 63.4239 718.236C68.1726 722.432 67.8933 722.711 72.6421 726.907C77.3908 731.103 76.5528 731.942 81.0222 736.417C85.771 740.612 87.447 738.655 92.1958 743.13C96.9446 747.325 96.9446 747.325 101.414 751.8C106.163 755.996 105.045 757.395 109.515 761.87C113.984 766.345 114.822 765.506 119.292 769.981C123.761 774.456 122.364 775.855 126.834 780.33C131.303 784.805 131.303 784.805 135.773 789.281C140.242 793.756 141.359 792.637 145.829 797.112C150.298 801.587 148.902 803.266 153.371 807.741C157.84 812.216 159.237 810.818 163.986 815.013C168.455 819.488 167.617 820.327 172.366 824.523C177.115 828.719 176.836 829.278 181.584 833.474C186.333 837.669 186.612 837.389 191.361 841.585C196.11 845.78 195.831 846.06 200.579 850.256C205.328 854.451 204.769 855.011 209.518 859.206C214.267 863.402 217.06 860.325 221.53 864.8C225.999 869.275 223.206 872.072 227.396 876.827C231.586 881.582 232.983 880.184 237.452 884.939C241.642 889.694 242.76 888.575 246.95 893.33C251.14 898.085 251.698 897.525 255.889 902.28C260.079 907.035 259.799 907.315 263.989 912.07C268.179 916.825 268.459 916.545 272.928 921.02C277.398 925.495 275.442 927.174 280.191 931.649C284.66 936.124 284.66 936.124 289.409 940.32C293.879 944.795 293.32 945.354 297.789 949.83C302.259 954.305 303.376 953.186 307.846 957.661C312.315 962.136 313.712 960.738 318.181 965.213C322.651 969.688 321.533 970.807 326.003 975.283C330.472 979.758 330.193 980.037 334.662 984.792C339.132 989.547 339.69 988.708 344.16 993.463C348.629 998.218 348.908 997.659 353.378 1002.41C357.847 1007.17 355.892 1008.85 360.082 1013.6C364.551 1018.36 365.948 1016.96 370.138 1021.71C374.328 1026.47 372.932 1027.87 379.077 1029.82C385.223 1031.78 385.223 1031.22 391.368 1029.82C397.513 1028.43 397.513 1028.43 403.938 1027.03C410.084 1025.63 409.525 1022.83 415.67 1021.43C421.816 1020.03 422.375 1021.71 428.52 1020.31C434.665 1018.92 434.945 1020.31 441.37 1018.92C447.515 1017.52 447.236 1016.12 453.381 1014.16C459.527 1012.48 459.806 1013.6 465.952 1011.64C471.818 1009.41 471.259 1007.45 477.125 1005.21C482.991 1002.97 483.55 1004.65 489.695 1002.41C495.561 1000.18 495.841 1000.46 501.707 998.218C507.573 995.98 506.735 993.183 512.601 991.226C518.467 988.988 519.305 990.946 525.451 989.268C531.596 987.589 531.037 985.631 537.462 984.233C543.608 983.114 544.167 985.632 550.312 984.513C556.457 983.394 556.178 981.436 562.323 980.037C568.469 978.919 568.748 980.317 575.173 979.198C581.319 978.08 581.598 979.198 587.743 978.08C593.889 976.961 593.609 974.723 599.755 973.325C605.9 971.926 605.342 970.248 611.487 968.57C617.633 966.891 618.191 968.57 624.057 966.891C630.203 965.213 629.924 964.933 636.069 962.976C642.214 961.297 642.773 963.255 648.919 961.577C655.064 959.899 655.064 959.899 661.21 958.221C667.355 956.542 666.796 954.864 672.942 953.186C679.087 951.508 678.808 950.669 684.953 948.99C691.099 947.592 691.378 948.431 697.524 947.033C703.669 945.634 703.669 945.914 709.815 944.236C715.96 942.837 716.239 944.236 722.385 942.557C728.53 941.159 727.692 937.523 733.838 935.845C739.983 934.166 740.542 936.684 746.687 935.005C752.833 933.327 752.833 933.327 758.978 931.649C765.124 929.971 764.565 928.572 770.71 926.894C776.856 925.216 777.694 928.013 783.56 926.335C789.706 924.656 788.588 921.02 794.734 919.342C800.879 917.664 800.879 917.944 807.025 916.265C813.17 914.587 813.449 915.706 819.595 914.028C825.74 912.349 825.461 910.951 831.606 909.273C837.752 907.595 838.31 909.553 844.456 907.874C850.601 906.196 850.601 906.476 857.026 904.798C863.172 903.119 862.892 902 869.038 900.043C875.183 898.364 874.904 897.525 881.329 895.847C887.474 894.169 888.592 896.966 893.061 892.491C897.53 888.015 896.692 887.456 898.368 881.582C900.324 875.429 899.765 875.149 901.441 869.275C903.397 863.122 903.955 863.402 905.631 857.248C907.587 851.095 905.352 850.535 907.028 844.382C908.983 838.228 911.497 839.068 913.453 832.914C915.408 826.761 915.408 826.761 916.805 820.327C918.202 814.174 916.246 813.615 917.363 807.461C918.481 801.308 918.76 801.308 919.878 794.875C920.995 788.721 923.23 789.001 924.347 782.568C925.464 776.414 923.23 775.855 924.347 769.701C925.464 763.548 926.023 763.548 926.861 757.115C927.978 750.961 928.816 750.961 930.213 744.808C931.61 738.654 929.654 738.095 931.61 732.221C933.565 726.068 932.727 726.068 934.683 719.914C936.638 713.761 938.593 714.32 940.269 708.447C942.225 702.293 943.342 702.853 945.018 696.699C946.973 690.546 946.973 690.546 948.929 684.672C950.884 678.518 948.929 677.959 950.605 671.806C952.281 665.652 951.722 665.652 953.119 659.499C954.516 653.345 954.236 653.345 955.633 647.192C957.03 641.038 957.03 641.038 958.426 634.885C959.823 628.731 959.823 628.731 961.22 622.578C962.616 616.425 965.689 617.264 967.365 611.11C968.762 604.957 967.365 604.677 969.041 598.524C970.717 592.37 969.32 592.09 971.555 585.937C973.511 580.063 974.628 580.343 976.863 574.19C978.818 568.316 980.215 568.595 982.17 562.722C984.126 556.568 981.612 555.729 983.567 549.855C985.522 543.702 985.243 543.702 987.198 537.828C989.154 531.955 993.064 533.073 994.74 526.92C996.696 520.766 995.858 520.487 997.534 514.613C999.21 508.46 999.21 508.46 1000.89 502.306C1002.56 496.153 1002 496.153 1003.68 489.999C1005.36 483.846 1003.4 483.286 1005.08 477.133C1006.75 470.979 1009.55 471.819 1011.22 465.665C1012.9 459.512 1009.82 458.673 1011.22 452.519C1012.62 446.366 1015.97 447.205 1017.09 441.051C1018.2 434.898 1017.93 434.898 1019.04 428.744C1020.16 422.591 1017.37 422.032 1018.48 415.878C1019.6 409.725 1021 410.004 1022.4 403.851C1023.51 397.697 1022.67 397.418 1024.07 391.264C1025.19 385.111 1029.1 385.391 1027.7 379.237C1026.03 373.084 1025.19 373.363 1021 368.608C1016.81 363.853 1016.81 364.133 1012.62 359.378C1008.43 354.623 1005.91 357.141 1001.72 352.386C997.534 347.631 998.092 347.071 994.182 342.316C989.992 337.561 992.506 335.324 988.316 330.849C984.126 326.094 981.891 328.331 977.421 323.856C973.231 319.101 974.907 317.703 970.438 312.948C965.969 308.472 965.689 308.752 961.22 303.997C956.75 299.522 957.309 298.963 952.84 294.487C948.37 290.012 948.37 290.012 943.901 285.537C939.431 281.062 936.917 283.579 932.448 279.104C927.978 274.629 929.375 273.23 924.906 268.755C920.436 264.28 921.274 263.44 916.526 259.245C911.777 255.049 911.218 255.888 906.469 251.413C901.721 247.218 902.279 246.379 897.81 242.183C893.061 237.988 892.223 239.106 887.474 234.631C882.725 230.436 883.563 229.317 879.094 225.121C874.625 220.926 874.625 220.646 870.155 216.171C865.406 211.975 865.406 211.975 860.658 207.78C856.188 203.304 855.909 203.584 851.16 199.389C846.691 194.913 847.529 194.074 843.059 189.599C838.59 185.124 837.193 186.802 832.444 182.327C827.975 177.852 829.092 176.453 824.623 172.258C820.154 167.782 818.198 169.74 813.729 165.265C809.259 160.79 808.98 161.069 804.51 156.594C800.041 152.119 801.996 150.161 797.527 145.686C793.058 141.211 790.544 143.728 786.074 139.253C781.605 134.777 782.443 133.938 777.973 129.463C773.504 124.988 774.901 123.31 770.431 119.114C765.962 114.639 764.844 115.758 760.375 111.282C755.906 106.807 756.185 106.528 751.995 101.773C747.805 97.0176 748.084 97.0176 743.894 91.983C739.704 87.2281 738.866 87.7875 734.676 83.0325C730.486 78.2776 730.206 78.2776 726.016 73.5226C721.826 68.7677 723.502 67.0895 719.312 62.3345C715.122 57.5796 714.005 58.4187 709.815 53.6638C705.345 48.9089 706.183 48.3494 701.434 43.5945C696.965 39.1193 696.406 39.399 691.937 34.9237C687.467 30.4485 687.467 30.4485 682.719 25.6936C678.249 21.2183 676.573 22.8965 671.824 18.1416C667.355 13.6664 666.517 14.2258 662.048 9.75054C657.578 5.27531 660.092 2.19858 653.947 0.52037C647.801 -1.15784 648.36 1.63918 642.214 3.03769C636.069 4.7159 636.069 4.4362 629.644 6.11441C623.499 7.79263 622.94 5.83471 616.795 7.23322C610.649 8.91144 611.208 11.4288 605.062 12.8273C598.917 14.5055 597.8 10.8694 591.654 12.5476C585.509 14.2258 585.509 14.7852 579.363 16.7431C573.218 18.701 572.938 17.8619 567.072 20.0995C561.206 22.3371 562.603 26.253 556.737 28.4906C550.871 30.7282 549.753 27.9312 543.887 30.1688C538.021 32.4064 538.3 33.2455 532.155 35.4831C526.289 37.7208 526.568 38.8396 520.702 41.0772C514.836 43.3148 514.836 44.1539 508.69 46.1118C502.545 47.79 501.707 44.4336 495.561 45.5524C489.416 46.6712 489.695 49.1886 483.55 50.5871C477.404 51.7059 476.846 50.0277 470.7 51.1465C464.555 52.2653 464.555 52.8247 458.409 53.9435C452.264 55.0623 452.543 57.0202 446.398 58.139C440.252 59.2578 439.973 58.4187 433.828 59.8172C427.682 61.2157 427.682 60.6563 421.537 62.6143C415.391 64.2925 415.67 64.8519 409.525 66.5301C403.38 68.2083 402.821 66.2504 396.675 68.2083C390.53 69.8865 391.368 72.9632 385.502 74.6414C379.356 76.3197 378.798 74.6414 372.932 76.3197C366.786 77.9979 366.786 77.9979 360.641 79.6761C354.495 81.3543 355.054 83.3122 348.908 84.9904C342.763 86.6686 342.484 85.8295 336.338 87.5077C330.193 89.186 329.913 88.0672 323.768 90.0251C317.622 91.7033 317.343 90.5845 311.198 92.2627C305.052 93.9409 306.17 97.2973 300.024 98.9755C293.879 100.654 293.879 100.654 287.733 102.052C281.588 103.73 281.588 103.451 275.442 105.129C269.297 106.528 269.297 107.087 263.151 108.765C257.006 110.164 257.006 110.443 250.86 111.842C244.715 113.24 243.877 109.604 237.731 111.282C231.586 112.681 231.865 113.52 225.441 114.919C219.295 116.317 219.295 116.876 213.15 118.555C207.004 120.233 207.004 119.953 200.859 121.631C194.713 123.31 194.713 123.31 188.568 124.988C182.422 126.666 183.26 128.904 177.115 130.862C170.969 132.54 170.69 131.421 164.545 133.099C158.399 134.777 158.958 136.735 152.812 138.414C146.667 140.092 143.874 134.777 139.404 139.532C134.935 144.008 137.728 146.245 136.052 152.119C134.655 158.272 135.773 158.552 134.376 164.706C132.979 170.859 133.259 170.859 131.583 177.012C130.186 183.166 128.231 182.607 126.834 188.76C125.437 194.913 127.951 195.473 126.555 201.626C125.158 207.78 125.716 208.059 124.32 214.213C122.923 220.366 121.526 220.087 119.85 226.24C118.454 232.393 115.94 231.834 114.264 237.988C112.867 244.141 113.426 244.421 111.75 250.574C110.353 256.728 111.191 257.007 109.515 263.161C108.118 269.314 107.839 269.314 106.163 275.468C104.766 281.621 106.442 282.18 105.045 288.334C103.369 294.487 101.135 293.928 99.1793 299.802C97.5032 305.955 97.2239 305.675 95.2685 311.829C93.5925 317.982 94.7098 318.262 93.0338 324.415C91.3578 330.569 90.5198 330.289 88.8437 336.443C87.1677 342.596 88.5644 342.876 86.8884 349.029C85.2123 355.183 82.6983 354.344 81.0222 360.497C79.0669 366.65 80.1842 366.93 78.2288 372.804C76.2735 378.678 76.5528 378.957 74.5974 385.111C72.6421 390.985 73.2007 391.264 71.2454 397.418C69.29 403.292 69.8487 403.571 67.8933 409.725C65.9379 415.878 64.2619 415.039 62.0272 421.192C60.0718 427.346 58.6751 426.786 56.9991 432.94C55.323 439.093 56.4404 439.373 55.0437 445.527C53.3677 451.68 55.0437 451.96 53.647 458.113C51.971 464.267 51.6916 464.267 50.0156 470.14C48.3396 476.294 47.7809 476.014 46.3842 482.168C44.7082 488.321 46.1048 488.601 44.4288 494.754C42.7528 500.908 41.3561 500.628 39.9594 506.781C38.5627 512.935 37.166 512.655 35.49 518.809C34.0933 524.962 34.9313 525.242 33.5346 531.395C32.1379 537.549 31.8586 537.549 30.4619 543.702C29.0652 549.855 30.7412 550.415 29.3445 556.568C27.9478 562.722 27.9478 562.722 26.5511 568.875C25.1544 575.029 26.2718 575.308 24.5957 581.462C22.9197 587.615 20.685 587.056 19.009 593.209C17.0536 599.363 18.1709 599.642 16.4949 605.796C14.5395 611.949 12.3048 611.11 10.6288 617.264C8.67341 623.417 8.95275 623.417 7.27671 629.571C5.32134 635.724 8.39407 637.122 5.32134 642.717C2.80729 648.59 -1.10346 648.031 0.293234 654.464Z" fill="#1B1D3C"/>
</svg>
