<svg xmlns="http://www.w3.org/2000/svg" viewBox="0 0 198.9 198.9">
  <defs/>
  <g fill="#FAB944">
    <path d="M196 26.5c.1-.1-1.5-.4-3.4-.6-1.9-.2-4.9-1-6.6-1.8-1.7-.8-5-3.7-7.5-6.4l-.2-.2c-2.5-2.7-6.3-7.2-8.6-10.1l-2-2.5c-.6-.8-1.2-1.5-1.7-2.4-.4-.8-1-1.4-1.5-2.1-.1-.2-.2-.3-.2-.5h-4.9c-2.4 2-5.2 5.6-6.7 8.5l-1.7 3.4c-1.6 3.3-3.4 5.6-4 5.2-.6-.4 0-3.5 1.3-6.8 1.2-3.2 2.9-7.7 3.9-10.3h-2.5c-1 2.7-2.5 6.7-3.6 9.6l-1.8 4.7c-1.3 3.4-3.5 5.1-4.8 3.7-1.3-1.4-1.1-4.6.4-7.1s3.3-7.4 4-10.9h-2.4c-.8 3.4-2.3 7.6-3.5 9.6-1.4 2.3-3.6 3-5 1.6s-1.5-5.4-.2-8.8l.9-2.4h-2.5l-.7 2c-1.2 3.4-3.6 7.4-5.3 8.7-1.7 1.4-5.2 2.7-7.8 2.9-2.6.2-6.7-1.4-9.1-3.7-2.4-2.3-3.7-5.4-3-7 .8-1.6 3.2-1.3 5.3.7 2.2 2 5.9 3.6 8.3 3.6 2.4 0 5.5-2.8 6.9-6.1l.4-1h-2.9c-.8 1.1-1.6 1.3-1.9.5-.1-.1-.1-.3-.2-.5h-2.9c.5.6.9 1.3 1.1 1.8.7 1.7.1 3-1.3 3-1.5 0-4.3-1.5-6.4-3.4-.5-.4-.9-.9-1.3-1.4h-6.7c0 .5-.1 1-.4 1.5-.7 1.4-2.3 1.9-3.9 1.4-.3-.1-.6-.2-.9-.4-1-.6-2-1.5-2.8-2.5h-4.6c-.3.8-.8 1.4-1.4 1.6-1 .3-2-.3-2.8-1.6h-3.7c-.3 1.8-1.2 3-2.4 3-1.5 0-3.1-1.2-4-3h-2.7c.1.3.2.6.2.9.2 1 .4 1.9.6 2.9C75.2 5 76 6 76.8 7c1 1.2 2 2.5 3 3.7l6.8 8.7c2.2 2.9 3.3 6.1 2.4 7.1-.9 1-3.9-.1-6.7-2.5L79 21.1c-2.7-2.4-5.9-7.2-7.1-10.7L71.1 8c-1-2.9-1.1-6.1-.4-8h-2.4c-.6 2.3-.6 5.2.2 7.5l1.4 4.2c1.2 3.5 4.3 8.3 7.1 10.7l3.7 3.2c2.7 2.4 4 5.5 2.8 6.9-1.2 1.4-2.8 1.8-3.6.9-.8-.9-1.5-1.7-1.5-1.7s-2-2.2-4.5-4.9L69.4 22c-2.5-2.7-5.3-7.7-6.4-11.2L62.5 9c-.7-2.5-.7-6.1-.2-9.1h-2.5c-.5 3-.5 6.5.2 9l.9 3.1c1 3.5 3.9 8.6 6.4 11.2l3.4 3.6c2.5 2.7 3.2 6.2 1.6 7.8-1.6 1.6-4.7.5-6.9-2.4l-5.8-7.7c-2.2-2.9-4.5-8.2-5.1-11.8l-1-6c-.3-1.9-.3-4.4 0-6.7H42.9l-.6 7.4C42 11 40.5 13.5 39 13c-1.5-.5-2.5-4-2.2-7.6l.5-5.4H35l-.5 5.7c-.3 3.6-2.7 8.8-5.2 11.4l-5 5.3c-2.5 2.7-5.4 3.8-6.4 2.5-1-1.3.2-4.4 2.8-7l2.7-2.7c2.6-2.6 5-7.6 5.2-11.3l.3-3.9h-3c.4.5.6.9.5 1.3-.1 1.4-3.1 1.8-6.6.9L11.4 0H4c1.5.7 3.2 1.3 4.7 1.7l11.1 2.8c3.5.9 6.4 2.4 6.3 3.4-.1 1-.5 2.1-1 2.6s-3.8.2-7.4-.6L16 9.5c-3.5-.8-9-2.3-12.1-3.4-1.1-.4-2.5-1-3.9-1.8v3.6c.9-.1 1.9 0 3 .4 2.5.8 4.1 2.5 3.6 3.7-.6 1.2-3 1.7-5.3 1-.5-.1-.9-.3-1.3-.5v2.6c3.2.9 7.5 3.1 9.6 4.9 2.2 1.8 4.9 4.6 6.2 6.1 1.2 1.5 1.1 3.8-.3 5-1.4 1.2-3.9.5-5.5-1.6s-4.9-5.2-7.4-6.8c-.7-.5-1.6-1-2.6-1.4V24c.5.3.9.5 1.3.8 2.3 1.5 4.3 2.9 4.5 3.2.2.3-.3.8-1.3 1.2-.9.3-3-.1-4.6-.9v3.3c.8 1.6 1.3 4.2 1.1 6.7l-.1.8c.1 2-.4 3.7-.9 5v5.2c.6.7 1 1.8 1.1 3C1.3 54 .8 55.9 0 57v3.1l.3-.3c1.4-.8 4.9.2 7.9 2.4l3.3 2.3c3 2.1 4.3 4.8 2.9 6-1.4 1.2-4.8.2-7.6-2l-3.7-3C1.6 64.3.5 63 .1 61.9v4.2l5.7 4.6c2.8 2.3 5.8 7 6.7 10.6l.5 2.1c.8 3.6.7 9.3-.3 12.8l-1.3 4.5c-1 3.5-2.7 8.8-3.8 11.8-1.1 3-3.1 4.3-4.6 2.9-1.5-1.4-1.8-4.3-.8-6.5s2.9-6.8 4.3-10.2l.9-2.2c1.4-3.4 1.6-9 .4-12.5l-.2-.5C6.5 80 3.2 75.4.2 73.3H0v2.9c1.9 1.4 4.3 5.1 5.3 8.3 1 3.2.8 8.6-.6 12l-.5 1.3c-1.4 3.4-3.2 7.8-4.1 9.8 0 .1-.1.1-.1.2v8.3c1.7 2.1 1.9 4 .3 4.5-.1 0-.2.1-.3.1v2.6c2.8-.4 4.9.6 4.9 2.6 0 2.3-2 4.7-4.4 5.2-.2 0-.3.1-.5.1v2.5c.5-.2 1-.3 1.4-.4 2.4-.5 6.2.3 8.4 1.9 2.2 1.6 6.2 4.4 8.9 6.4 2.7 1.9 6.6 5.2 8.7 7.2 2.1 2 2.4 4.1.7 4.6s-4.8 0-6.9-1.2c-2.1-1.2-6-4.3-8.7-6.8l-.4-.4c-2.6-2.5-7.3-4.4-10.4-4.1-.5 0-1.1.1-1.7.2v2.4c.6-.1 1.2-.2 1.7-.3 2.6-.2 6.7 1.5 9.1 3.8 2.4 2.3 3.7 5.4 2.9 7-.8 1.6-3.2 1.3-5.3-.7-2.1-2-5.9-3.6-8.3-3.6h-.2v2.6c.3-.2.6-.3 1-.3 1.5 0 4.3 1.6 6.4 3.5 2.1 1.9 3 4.4 2.2 5.5-.9 1.1-3.2.9-5.1-.4-1.7-1.2-3.5-3.2-4.4-4.8v7.3c.9-1 2.2-1.2 3.5-.3 1.6 1.1 2.1 2.7 1.2 3.5-.9.8-2.7 1.5-4.1 1.4-.2 0-.4-.1-.6-.1v3.1c.1-.4.4-.6.8-.6 1.2 0 3.4 1.3 5 2.9 1.5 1.5 4.9 3.8 7.5 5 2.6 1.2 6.9 2.9 9.6 3.8 2.7.9 4.8 2.8 4.7 4.3-.1 1.5-3.1 2-6.6 1.1l-1.3-.3c-3.5-.9-8.7-3.3-11.4-5.4-2.7-2.1-6-5.5-7.3-7.6-.5-.9-.9-1.7-1-2.4v4.9c1.9 2.5 4.6 5.2 6.8 6.8l.1.1c2.9 2.2 8.2 4.7 11.7 5.6l2.2.6c3.5.9 6.3 2.6 6.3 3.8-.1 1.2-3 1.2-6.5 0l-2-.7c-3.5-1.1-8.7-3.1-11.6-4.4-2.2-1-5-2.7-7-4.3v2.9c1.9 1.3 4.1 2.6 5.9 3.4 3 1.4 5.5 2.5 5.5 2.5s2.9.9 6.3 2.1l2.7.9c2.5.8 4.6 2.1 5.6 3.3h3l1.2-16.3c.3-3.6-.2-9.5-1-13.1l-1.5-6.7c-.8-3.6-.1-6.9 1.7-7.5 1.7-.5 3.6 1.9 4.3 5.5l2.1 12c.6 3.6.9 9.5.5 13.1L35 198.9h2.3l1.2-12.3c.3-3.6 3-8.4 6-10.5l4.9-3.6c2.9-2.1 6.5-6.6 8-10l.8-1.9c1.4-3.4 1.8-9 .8-12.5l-.9-3.1c-1-3.5-3.8-8.6-6.3-11.3l-3.3-3.6c-2.5-2.7-3.2-6.2-1.6-7.8 1.6-1.6 4.7-.5 6.9 2.4l5.8 7.8c2.2 2.9 4.5 8.3 5.1 11.8l1 6c.6 3.6-.1 9.3-1.6 12.6l-.9 2c-1.5 3.3-5.1 7.9-7.9 10.2l-6 4.8c-2.8 2.3-5.4 7.1-5.7 10.8L43 199h10.6c.3-2.2.8-4.3 1.5-5.8l.9-2c1.5-3.3 5-7.9 7.9-10.2l5.9-4.8c2.8-2.3 5.4-7.1 5.6-10.8l1.2-15.7c.3-3.6 1.8-6.2 3.3-5.6 1.5.5 2.5 4 2.2 7.6l-1.6 17.7c-.3 3.6-3 8.4-5.9 10.5l-4.9 3.6c-2.9 2.2-6.5 6.7-7.9 10l-.8 1.9c-.4 1-.8 2.2-1 3.5h2.5c.2-1.2.5-2.4 1-3.4l.2-.5c1.4-3.4 4.2-7.3 6.1-8.7 1.9-1.4 3.4-.7 3.4 1.6s-1.5 6-3.3 8.2c-.6.7-1 1.7-1.3 2.7H71c.1-.4.3-.7.5-1 1-1.3 2.2-.8 2.9 1h2.7c-.3-.5-.5-1.1-.6-1.7-.5-2.6-.9-7.1-.9-10 .1-2.9 1.2-6 2.4-6.9 1.3-.9 2.9 1.2 3.5 4.8l1.8 10.2c.2 1.3.2 2.5.1 3.6h3.7c-.7-1-1.2-2.4-1.5-3.9L83.2 183c-.6-3.6-.9-9.5-.6-13.1l1.7-18.6c.3-3.6 2.6-8.8 5.1-11.5l5-5.4c1.7-1.8 3.6-3 5-3.1.6 0 1.1.1 1.4.5.8 1 .2 3.2-1.4 5.4-.4.5-.9 1.1-1.4 1.6l-2.7 2.7c-2.6 2.6-4.9 7.6-5.2 11.3l-1.5 20.4c-.3 3.6.2 9.5 1 13.1l1.6 6.7c.5 2.3.4 4.4-.2 5.9h4.6c-.6-.8-1-1.5-1.2-2.2-.4-1.5.7-2.6 2.3-2.4.7.1 1.7.3 2.6.6 1.1.3 2.1.8 2.9 1.2 1 .5 1.5 1.6 1.4 2.8h6.7c-1.2-1.6-1.6-3.2-.9-4.1.9-1.1 3.2-.9 5.1.4 1.3.9 2.7 2.3 3.7 3.7h2.9c-.4-1.6-.1-4.6.8-7 .9-2.8.3-7.3-1.4-10.2-1.7-2.8-5.5-6.9-8.5-9.1l-.1-.1c-2.9-2.2-8.2-4.7-11.7-5.6l-.8-.2-1.3-.3c-3.5-.9-6.4-2.6-6.3-3.7.1-1.2 3-1.2 6.5-.1l1.2.4.9.3c3.5 1.1 8.7 3.1 11.6 4.4 2.9 1.3 6.8 3.8 8.7 5.6 1.9 1.8 4.3 6 5.4 9.5 1.1 3.4.8 9-.6 12.3l-.3.8c-.6 1.4-1.2 2.4-1.7 3.1h2.9l1.2-2.8c1.4-3.4 3.6-6.3 4.9-6.5 1.3-.2 1.3 2.4.1 5.9l-1.2 3.4h2.5l1.3-3.6c1.2-3.4 3.6-6.1 5.3-5.9 1.7.2 2.5 3.3 1.8 6.9l-.3 1.5c-.1.3-.1.7-.2 1.1h2.4v-.2l.3-1.7c.7-3.6 2.7-6 4.4-5.3 1.8.7 2.5 3.3 1.5 5.9-.1.4-.3.8-.5 1.3h2.5c.1-.2.1-.3.2-.5.9-2.6 1.7-4.7 1.7-4.7s.8-2.5 1.7-5.5c.9-3 3.2-5.4 4.9-5.3 1.8.1 3.5 2.8 3.7 6.1.2 3.2-1.6 7.4-4.1 9.2-.3.2-.6.4-.9.7h4.9c-.1-.4.1-.8.6-1.1.8-.4 1.4.2 1.9.8l.3.3h3.7c-2-2.8-3.7-6.6-3.9-9.2-.2-2.9.3-4.9 1.1-4.4s3.1 3.5 5.1 6.5l1.7 2.6c.9 1.3 2.1 2.9 3.4 4.4h3.2c-1.9-2-3.7-4.2-4.9-6l-1.1-1.7c-2-3-2.6-6.5-1.4-7.7 1.2-1.2 3.9.3 6 3.3l.9 1.3c2 3 5.8 7.6 8.3 10.3l.6.6h3.3l-.5-.5-1.5-1.6c-2.5-2.6-6.3-7.2-8.3-10.3l-1.4-2.1c-2-3-4.3-7.9-5.1-10.9-.8-3-.1-5.2 1.5-5 1.6.2 4 3.2 5.3 6.6l.2.5c1.3 3.4 4.3 8.5 6.7 11.2l.4.5c2.4 2.8 5.7 6.6 7.5 8.4.3.3.7.6 1.1.9v-3.2c-1.7-1.8-4.7-5.1-6.9-7.7l-.1-.1c-2.4-2.8-5.3-7.7-6.6-11-1.3-3.2-1.2-6.1.2-6.3 1.3-.2 3.3 2.4 4.4 5.9 1.1 3.4 3.6 7.9 5.7 9.8.8.8 2 1.7 3.3 2.7v-2.9c-.6-.5-1.2-1-1.6-1.4-1.9-1.8-4.2-6.1-5.3-9.5-.7-2.2-.7-4.5-.6-6.8.1-1.2.4-2.3.5-3.5.1-1.1.6-1.8 1-2.9 1.4-3.4 3-5 3.6-3.6.6 1.4.3 4.8-.7 7.5s-.3 7.3 1.4 10.2c.4.7 1 1.5 1.6 2.3v-4.9V167.4c-.9-.4-1.2-1.8-.6-3.4.1-.4.4-.8.6-1.1v-7.3c-.1-.2-.3-.5-.4-.7-.5-1.2-.3-2.3.4-2.7v-2.6c-2.4.1-5.4 2.8-6.8 6.1l-1.6 3.8c-1.4 3.4-3.6 6.3-4.9 6.5-1.3.2-1.3-2.5-.1-5.9l2-5.4c1.3-3.4 3.7-7.3 5.3-8.7 1.3-1.1 3.8-2.1 6.1-2.6V141c-2.7.5-5.6 1.6-7 2.7-1.7 1.4-4.1 1.4-5.4 0-1.3-1.4.2-4 3.3-5.9l.3-.2c2.6-1.6 6.2-3.2 8.7-4v-2.5c-2.5.7-6.6 2.5-9.6 4.3l-1.1.7c-3.1 1.9-6.8 2.2-8.2.7-1.4-1.5-.1-4.4 2.9-6.5 3-2.1 8.2-4.7 11.7-5.8l2.9-.9c.5-.2 1-.3 1.5-.3v-2.6c-2 .3-5.3-1.2-7.8-3.7l-1.2-1.2c-2.6-2.6-7.4-5.9-10.7-7.4l-3.7-1.6c-2.6-1.1-6.8-4.2-9.6-2.2-2.2 1.5-4.4 2.7-6.7 3.9-1 .5-2 1.1-3 1.7 0 0-1.9 1.6-4.1 3.5-2.2 1.9-5.2 6.2-6.6 9.5l-.6 1.5c-1.4 3.4-3.2 9-3.9 12.6l-.2 1.1c-.7 3.6-2.6 5.1-4.2 3.3-1.6-1.8-1.6-5.9 0-9.2l5.3-11c1.6-3.3 4.8-7.9 7.2-10.1 2.4-2.3 7-5.5 10.2-7.2l3.1-1.6c3.2-1.7 8.7-1.9 12.1-.6l1.3.5c3.4 1.3 8.2 3.3 10.7 4.3s6.7 3.9 9.4 6.4l2.1 1.9 1.1 1.1v-8.3c-.9 1.9-2.6 2.5-3.7 1.5-1.2-1.1-.7-4.6 1-7.9l2.7-5.1V86c-1.8-2.2-3.3-5.9-3.3-8.2-.1-2.3 1.4-3.1 3.3-1.7v-2.9l-4.9-3.5c-2.9-2.1-5.6-6.9-6-10.5l-1.7-17.7c-.3-3.6.6-7 2.2-7.6 1.5-.5 3 2 3.3 5.6l1.2 15.7c.3 3.6 2.8 8.5 5.7 10.8l.1.1v-4.2c-.3-.7-.3-1.4 0-1.8V57c-.2.3-.5.6-.8.8-1.3.8-2.6-.9-2.8-3.8-.2-2.9.6-5.4 1.9-5.5.6-.1 1.2.3 1.7.9v-5.2c-.5 1.2-1.1 1.9-1.8 2-1.3.2-2.6-2.7-2.9-6.3l-.1-1.6c-.3-3.6-.2-7.2.2-8 .4-.7 1.9-.7 3.5.1.4.2.8.7 1.2 1.3v-3.3c-2.1-1-3.3-1.8-3.3-1.9zM15.6 155.3c.8-1.6 2.9-2.1 4.8-1s3.7 3.2 4 4.7c.3 1.5-.7 2.6-2.3 2.4-1.6-.2-4.1-1-5.4-1.8-1.4-.7-1.8-2.7-1.1-4.3zm-4.1 6.9c.8-1.1 2.7-1.2 4.2-.4 1.5.8 4.3 1.8 6.3 2 2 .3 3.9 1.9 4.3 3.6.4 1.7-.9 2.8-2.8 2.4-1.9-.4-5.8-1.9-8.5-3.2-2.8-1.4-4.3-3.3-3.5-4.4zM28 174.6c.2.8.3 2.6.2 3.9-.1 1.3-2.2 1.7-4.8.9-2.5-.8-6.6-2.4-9-3.6-2.4-1.2-5.5-3.2-6.8-4.5-1.3-1.3-1.7-3.1-.8-3.9.9-.8 4.1-.3 7.1 1.2s7.3 3.1 9.6 3.6c2.2.5 4.3 1.6 4.5 2.4zm79.5 18.9c-.8 1.1-2.7 1.3-4.2.4-.9-.5-2.4-1.1-3.9-1.5-.9-.2-1.7-.4-2.5-.5-2-.3-4-1.9-4.4-3.6-.4-1.7.9-2.8 2.8-2.4 1 .2 2.5.7 4 1.3 1.5.6 3.2 1.2 4.5 1.9 2.9 1.4 4.5 3.3 3.7 4.4zm4.7-5.2c-.9.8-4.1.3-7.1-1.1-1.7-.8-3.8-1.7-5.7-2.3-1.5-.5-2.9-1-3.9-1.2-1.3-.3-3.3-.8-4.2-1.9-.9-1-.6-3.2-.5-4.4.1-1.3 2.2-1.7 4.7-.9 1.1.3 2.5.8 3.9 1.4 1.8.7 3.7 1.5 5.1 2.1 2.4 1.1 5.5 3.1 6.9 4.5 1.3 1.2 1.7 2.9.8 3.8zm7.4 3.3c-.7 1.9-2.5 2.6-4.1 1.4-1.6-1.1-2.1-2.7-1.2-3.5.9-.8 2.7-1.5 4.1-1.4 1.3 0 1.8 1.6 1.2 3.5zm-21.7-22.9l1.3.3c.1 0 .1 0 .2.1 3.5.9 8.5 3.3 11.2 5.3 2.7 2 6 5.4 7.3 7.5 1.3 2.1 1.3 3.8.2 3.8-1.2 0-3.4-1.3-5-2.9-1.6-1.5-4.9-3.8-7.5-5-1.7-.8-4-1.7-6.2-2.6-1.2-.5-2.4-.9-3.4-1.2-2.7-.9-4.8-2.8-4.7-4.3.1-1.4 3.1-1.9 6.6-1zm46.6-148.2c.6-1.5 2.2-.5 3.2-.4 1.2.1 2.2-1.3 2.9-2.2.6-.8 1.1-1.6 1.5-2.4l1.9-3.8c1.6-3.3 3.8-4.6 4.9-3 .9 1.3 1.5 2.5 1 4s-1.6 2.4-2.5 3.7c-1.3 1.7-4.1 4.2-6.2 5.6-2.1 1.4-4.6 2-5.6 1.4-1.1-.7-1.5-2-1.1-2.9zm7.7 3.6c2.4-1.6 4.4-2.9 4.4-2.9l.1-.1s.8-1.1 1.8-2.4c1-1.3 2.3-3 2.8-3.8.6-.8 2.2-.4 3.6.9 1.4 1.2 1.6 3.5.3 5-1.2 1.5-4 4.3-6.2 6.1-2.2 1.8-6.6 4.1-9.8 4.9-2 .6-3.9 1.1-5.7 2.1-2 1.1-3.4 2.7-5.1 4.1l-4.2 3.5c-1.2 1-2.6 1.9-3.6 3-.8 1-2 1.8-2.7 2.9-.9 1.3-1.7 2.6-2.6 4l-1.7 2.6c-.7.7-1.2 1.9-1.8 2.8-.5.8-1.1 1.5-1.9 2.1-3.2 2.3-2.5-3.6-2-5.1.8-2.8 2.4-5.7 4.3-7.9l1.2-1.3c2.4-2.7 6.1-5.9 8.2-7.1 2.1-1.2 3.9-2.2 3.9-2.2s2.5-1.7 5.5-3.7l1.2-.8c3.1-2.2 7.6-5.2 10-6.7zM99.4 90.8l.3-.6c1.1-1.2 2.8.7 4 4.2l.4 1.3c1.1 3.5 2.7 9.2 3.4 12.8l.9 4c.8 3.6.7 6.7-.1 7-.8.3-2-2.2-2.6-5.4-.6-3.3-2.3-8.7-3.7-12.1l-1.5-3.6c-.5-1.1-.8-2.2-1-3.2-.5-1.8-.5-3.4-.1-4.4zm-33.9 4.3c-3.1 1-8.6 2.5-12.1 3.3l-1.6.4c-3.6.8-6.9 1.1-7.4.6-.5-.5-1-1.7-1-2.6-.1-1 2.8-2.5 6.3-3.3l11.1-2.8c3.5-.9 7.9-3.1 9.7-4.9 1.8-1.8 5.1-5.4 7.4-8.1 2.3-2.7 5.1-4.2 6.3-3.4 1.2.8 1.2 2.9 0 4.7-1.2 1.8-4.3 5.3-6.8 7.9l-1.5 1.6c-2.7 2.6-7.3 5.6-10.4 6.6zm2.6 6.9c-2.4.6-4.8.2-5.3-1-.6-1.2 1.1-2.9 3.6-3.7 2.5-.8 4.9-.4 5.3 1 .4 1.4-1.2 3.1-3.6 3.7zm-9.7 5.1c-1.8 1.6-5.1 1.1-7.2-1-2.1-2.1-1.1-4.5 2.2-5.2 3.4-.8 6.6-.3 7.2 1 .6 1.3-.4 3.6-2.2 5.2zM85.5 65c1.3-3.2 3.6-6.1 5.2-6.3 1.6-.2 2.3 2.1 1.5 5-.8 3-2.1 6.5-3 7.8-.9 1.3-2.6 1.7-3.8.9-1.2-.8-1.1-4.2.1-7.4zm-7.8 24.9l1.4-1.4c2.5-2.6 6.3-7.2 8.4-10.2l.9-1.3c2.1-3 4.8-4.5 6-3.3 1.2 1.2.6 4.7-1.4 7.7l-1.1 1.7c-2 3-6 7.4-8.8 9.7l-3.3 2.7c-2.8 2.3-5.5 3-5.9 1.6-.5-1.3 1.3-4.6 3.8-7.2zm16.7-25.2c.6-2.5 2.6-1.9 4.3 1.3.3.6.6 1.1.8 1.7 1.1 2.6 1.3 4.8.6 5.3-.2.1-.4.2-.6.2-1 .2-2.5-.4-3.7-1.5-1.4-1.3-2.1-4.5-1.4-7zm5.5-1.2c-.2-.4-.4-.7-.5-1.1-1-2.4-1-4.6 0-5.6.2-.2.4-.3.6-.4 1.8-.7 3.8.6 4.5 2.8.7 2.2 1.2 4 1.2 4s.5 1.3 1.2 2.9c.7 1.6.3 3.3-.9 3.8s-3.5-1.8-5.2-5l-.9-1.4zm53.5-22.7c3.1-1 8.5-2.6 12.1-3.4l1.6-.4c3.6-.8 6.9-1.1 7.4-.6.5.5 1 1.7 1 2.6.1 1-2.8 2.5-6.3 3.4l-11.1 2.8c-3.5.9-7.9 3.1-9.7 4.9-1.8 1.8-5.2 5.6-7.5 8.3l-.5.5c-2.4 2.8-5.4 7.8-6.7 11.2l-.2.5c-1.3 3.4-3.7 6.4-5.3 6.6-1.6.2-2.3-2.1-1.5-5 .8-3 3-7.9 5.1-10.9l1.4-2.1c2-3 5.8-7.6 8.3-10.3l1.5-1.6c2.7-2.5 7.3-5.5 10.4-6.5zm-2.6-6.9c2.4-.6 4.8-.2 5.3 1 .6 1.2-1.1 2.9-3.6 3.7-2.5.8-4.9.4-5.3-1-.4-1.4 1.2-3.1 3.6-3.7zm-.5 41.9c-1.2 0-1.1-1.7.2-3.8 1.3-2.1 4.5-5.5 7.3-7.6 2.7-2.1 7.9-4.5 11.4-5.4l1.3-.3c3.5-.9 6.5-.4 6.6 1.1.1 1.5-2 3.4-4.7 4.3-2.7.9-7 2.6-9.6 3.8-2.6 1.2-6 3.5-7.5 5-1.6 1.6-3.8 2.9-5 2.9zm2.7 7.4c-1.6 1.1-3.4.5-4.1-1.4-.7-1.9-.1-3.5 1.2-3.5s3.2.6 4.1 1.4.3 2.3-1.2 3.5zm17.3-26.8l-2.2.6c-3.5.9-8.8 3.5-11.7 5.6l-.1.1c-2.9 2.2-6.7 6.3-8.4 9.2-1.7 2.8-2.3 7.4-1.4 10.2 1 2.7 1.2 6.1.7 7.5-.6 1.4-2.2-.2-3.6-3.6l-.3-.8c-1.4-3.4-1.7-8.9-.6-12.3 1.1-3.4 3.5-7.7 5.3-9.5 1.9-1.8 5.7-4.3 8.6-5.6 2.9-1.3 8.1-3.3 11.6-4.4l2-.7c3.5-1.1 6.4-1.1 6.5 0-.1 1.1-2.9 2.8-6.4 3.7zm-.4-6.2l-2.6.9c-3.5 1.1-8.8 3.2-11.8 4.6-3 1.4-7.2 4.1-9.3 6.1-2.1 2-4.6 6.4-5.7 9.8-1.1 3.4-3 6.1-4.4 5.9s-1.4-3-.2-6.3c1.3-3.2 4.2-8.2 6.6-11l.1-.1c2.4-2.8 5.6-6.4 7.3-8.1 1.6-1.7 5.9-3.8 9.4-4.7l10.1-2.6c3.5-.9 6.5-.5 6.6.9.1 1.4-2.6 3.5-6.1 4.6zm-28.7-4.1l-1.3 1.4c-2.5 2.6-4.6 4.8-4.6 4.8s-1.7 2.5-3.8 5.5l-.9 1.3c-2 3-4.7 4.5-6 3.3-1.2-1.2-.6-4.7 1.4-7.7l1.1-1.7c2-3 5.9-7.4 8.8-9.7l3.3-2.7c2.8-2.3 5.5-3.1 5.9-1.7.4 1.3-1.3 4.6-3.9 7.2zm-14.3 80.5c1.1-1.5 2.5-2.6 3.2-2.5.6.2.3 1.6-.7 3.1-1 1.6-2.4 2.7-3.2 2.5-.7-.2-.4-1.6.7-3.1zm-2.1-1.2c-1.2 1.6-3.1 2.1-4.3 1.2-1.2-.9-.5-2.6 1.5-3.8 2-1.1 4-1.7 4.3-1.2.4.5-.3 2.2-1.5 3.8zm-.7-6.4l-.6.3c-3.2 1.8-5.6 2-5.3.4.2-1.6 2-3.6 3.9-4.6 1.1-.6 2.6-1.6 3.9-1.6.9 0 2.7.8 2.3 2-.6 1.6-2.9 2.8-4.2 3.5zm-18.4-32.9c1.1-.3 3.1 2.3 4.3 5.7l.9 2.6c1.2 3.4 2.8 9.2 3.6 12.7l.5 2.6c.7 3.6 1.1 7.9.9 9.6-.3 1.7-1.2 2.4-2.1 1.5-.9-.9-2.2-4.5-3-8.1l-1-4.8c-.8-3.6-2.3-9.3-3.4-12.8l-.7-2.2c-1.1-3.5-1.1-6.5 0-6.8zm-1.8-7.4c.2-3.1 1.5-6 2.8-6.5 1.3-.5 3.3 1.4 4.6 4.3 1.2 2.9 0 5.8-2.8 6.5-2.8.7-4.8-1.3-4.6-4.3zm11.5 21.3s-1-2.8-2.2-6.3l-.9-2.5c-1.2-3.4-1.3-6.5-.1-6.8 1.2-.3 2.9 1.6 3.9 4.2s2.8 7.5 4.2 10.9l2.1 5.5c1.3 3.4 1 6.9-.8 7.8-1.8.9-3.8-1.3-4.5-4.9l-.3-1.4c-.8-3.5-1.4-6.5-1.4-6.5zm8.9 3.5l-1.8-4.7c-1.3-3.4-3.2-8.3-4.1-10.9-1-2.6-.3-5.3 1.5-5.9 1.8-.7 3.8 1.7 4.5 5.3l.3 1.7c.7 3.6 2.5 8.6 4.1 11.1 1.6 2.5 1.8 5.7.4 7.1-1.4 1.3-3.6-.3-4.9-3.7zm.4-32.2c-.6 2.5-2.6 1.9-4.3-1.3-1.7-3.2-2.3-6.4-1.4-7 .9-.6 2.9-.1 4.3 1.3s2 4.5 1.4 7zm-5.6 1.3c1.7 3.2 1.6 6.4-.2 7.1-1.8.7-4.4-1.5-5.9-4.8l-1.5-3.5c-1.4-3.4-1.2-6.2.4-6.3 1.7-.1 4.4 2.5 6.1 5.7l1.1 1.8zm-4-15.8c-.2 3.2-1.9 6-3.7 6.1-1.8.1-3.9-1.9-4.7-4.5-.8-2.5-.4-6.1.9-8 1.3-1.9 3.6-2.5 5.1-1.4 1.6 1 2.7 4.5 2.4 7.8zm-5.7 65c.2-.1.4-.1.7 0 3.3.4 5.4 3.5 7.6 5.6 2.7 2.6 6.4 4.2 10 5.2 3 .8 5 2.2 4.6 3.1-.4.8-3 1-5.8.3s-6.9-2.4-9.2-3.9c-2.3-1.5-5.4-4.3-6.9-6.2-.4-.9-2.4-3.7-1-4.1zm19-1.2c-.4-.5.3-1.4 1.5-2.1 1.2-.7 2.7-.9 3.4-.6.7.3.7 1.5.1 2.5s-1.8 1.7-2.7 1.5c-.9-.3-1.9-.8-2.3-1.3zm1.6-7.6c-1.1-.8-.8-2.5.5-4 1.4-1.4 3.3-1.9 4.3-1 1 .9.7 2.7-.5 4-1.3 1.3-3.2 1.7-4.3 1zm.6-14.3c-1.4-2.3-3.1-7.1-3.8-10.7l-.3-1.5c-.7-3.6.1-6.7 1.8-6.9 1.7-.2 4 2.4 5.3 5.8l2.2 6c1.3 3.4 1.2 7.4-.2 8.8-1.4 1.5-3.6.8-5-1.5zm6.5 3.4c1.4-1.4 3.5-2 4.8-1.2 1.3.8 1 2.7-.7 4.3s-3.8 2.1-4.8 1.2c-1-.9-.7-2.8.7-4.3zm1-11.1l-2-5.3c-1.3-3.4-1.2-6.1.1-5.9 1.3.2 3.5 3.1 4.9 6.5l1.6 3.8c1.4 3.4 4.2 6.1 6.3 6.1 2 0 3.9.7 4.2 1.6.2.9-1.2 1.9-3.2 2.4s-5 0-6.6-1c-1.7-1.1-4.1-4.8-5.3-8.2zm12.4 2.8c-1.5 0-2.1-1.4-1.3-3 .7-1.7 2.9-4.1 4.8-5.5 1.9-1.4 4.2-1.6 5.1-.4.9 1.1-.1 3.6-2.2 5.5s-5 3.4-6.4 3.4zm7.9-1.6c1.9-1.8 4.1-2 4.8-.5.7 1.5-.6 3.7-3 4.8-2.4 1.1-4.5 1.3-4.8.5-.3-.9 1.1-3.1 3-4.8zm2.6-8.6c-.8-1.1.8-3 3.5-4.4 2.8-1.3 6.6-2.8 8.5-3.2 1.9-.4 3.2.6 2.8 2.4-.4 1.7-2.3 3.3-4.3 3.6-2 .3-4.8 1.2-6.3 2s-3.4.7-4.2-.4zm12-10c-2.3.5-6.6 2.1-9.6 3.6s-6.2 2-7.1 1.2c-.9-.8-.5-2.6.8-3.9 1.3-1.3 4.4-3.3 6.8-4.5 2.4-1.2 6.5-2.8 9-3.6 2.5-.8 4.7-.4 4.8.9.1 1.3 0 3-.2 3.9-.2.8-2.2 1.9-4.5 2.4zm4.2 9.4l1.5-6.6c.8-3.6 1.5-6.5 1.5-6.6 0 0-.2-3.1-.5-6.7l-1.6-20.3c-.3-3.6-2.6-8.7-5.2-11.3l-2.7-2.7c-2.6-2.6-3.9-5.7-2.8-7 1-1.3 3.9-.1 6.4 2.5l5 5.3c2.5 2.7 4.8 7.8 5.2 11.4l1.8 18.6c.3 3.6.1 9.5-.5 13.1l-2.1 12c-.6 3.6-2.5 6.1-4.3 5.5-1.8-.3-2.5-3.6-1.7-7.2zm-9.5-53.2c2.1 2.1 1.1 4.5-2.2 5.2-3.3.8-6.6.3-7.2-1-.6-1.3.4-3.7 2.2-5.2 1.8-1.6 5.1-1.1 7.2 1zm-25.5-5.3c2.4-1 1.9 1.5.7 2.7-1 .9-2.1 1.6-3.2 2.4-2.9 2-7.1 4.7-9.3 5.9-2.2 1.2-6 4.5-8.4 7.2l-1 1.1c-2.4 2.7-5.6 4.1-7.2 3.1-1.5-1-2.1-3.5-1.3-5.5s4.3-4.5 7.8-5.7l4.2-1.4c3.5-1.1 8.7-3.8 11.7-5.9l.5-.4c1.8-1.1 3.6-2.7 5.5-3.5zm-4.2-4.7c1.4 1.5.1 4.4-2.8 6.5-3 2.1-8.2 4.8-11.7 5.9l-2.9.9c-3.5 1.1-6.3.1-6.3-2.2 0-2.3 1.9-4.7 4.3-5.2 2.4-.6 6.9-2.6 10-4.4l1.1-.7c3.2-1.9 6.9-2.2 8.3-.8zM91 3.6c1.7-.5 4.8 0 6.9 1.2.4.3 1 .6 1.5 1 1.3.9 2.6 1.9 3.8 2.9.7.5 1.3 1.1 1.9 1.6.3.3.6.5.9.8 1.3 1.1 2.4 2.1 3.9 3 1.5.8 3.2 1.5 4.9 1.8.8.1 1.6.2 2.5.2 3.1-.3 7-1.6 8.6-3 1.7-1.4 4.1-1.4 5.4 0 1.4 1.5-.5 3.7-1.6 4.6-1.9 1.7-4.2 2.8-6.5 3.8-1.8.8-3.6 1.6-5.6 2.1-2.4.6-6.2-.3-8.4-1.8-2.2-1.6-6.2-4.4-8.9-6.3-.3-.2-.7-.5-1-.7-2.6-1.9-5.9-4.6-7.7-6.4-2-2.1-2.3-4.2-.6-4.8zm-2.2 14.9l-6.2-7.9c-2.2-2.9-2.7-5.2-1-5.3.9 0 2-.2 2.8.2.7.3 1.8.9 2.4 1.4 1 .9 1.9 1.7 2.9 2.6 4.5 4.2 9.5 7.7 14.4 11.3l3.9 2.7c2.2 1.6 4 4.7 4 7s-2.6 2.7-5.8.9l-.3-.2c-2-1.1-4.4-2.5-6.4-3.7-1.2-.7-2.2-1.3-2.9-1.7-2.1-1.1-5.5-4.4-7.8-7.3zm-2.7 14.7c1.2-1.4 3-3.5 4.2-4.8 1.1-1.3 2.7-1.9 3.3-1.5.7.4.2 2.5-1.1 4.6-1.3 2.1-3.8 3.9-5.5 4-1.7.1-2.1-1-.9-2.3zm-3.9 7c.1-1.2 2.2-2.3 4.7-2.4 2.5-.1 5.8-2.2 7.3-4.6.7-1.1 1.5-2.4 2.5-3.3.5-.4 1.3-.3 1.7.2.6.8 0 1.3-.4 1.9-.5 1-1 2-1.6 3-1.4 2.7-3.8 5.4-5.2 6.1-1.4.7-4.1 1.2-5.9 1.2s-3.2-.9-3.1-2.1zm3.3 4.5c2 0 5.1-.7 6.8-1.5 1.8-.8 4.4-3.8 6-6.7.4-.7.8-1.3 1.1-1.9 1.2-1.8 2.4-2.9 3-2.6.7.4.6 3-.4 5.7-.5 1.5-1.5 3.1-2.6 4.6-1 1.3-2 2.4-3 3.1-2.1 1.5-6.3 2.6-9.3 2.5-3-.1-5.4-1-5.4-1.8.1-.7 1.8-1.4 3.8-1.4zM81.2 53c.1-1.6 2.9-2.8 6.1-2.6 3.3.2 7.9-1.2 10.4-2.9.6-.4 1.1-.9 1.7-1.5 2-1.9 3.8-4.7 4.6-6.9 1-2.8 3.1-4.4 4.7-3.5 1.6.9 2.2 3.4 1.4 5.4s-2.7 5.5-4.2 7.7c-1.5 2.1-4.3 4.5-6.4 5.3h-.1c-1 .4-2.2.6-3.2 1-.9.4-1.8.6-2.7.7-1 .1-1.9.5-2.9.6-2 .3-5 .3-6.7 0-1.6-.2-2.8-1.7-2.7-3.3zm1.8 5.6c1.3.2 1.4 3 .1 6.3-1.3 3.2-4.2 8.2-6.6 10.9l-.1.1c-2.4 2.8-5.6 6.4-7.3 8.1-1.7 1.7-5.9 3.7-9.4 4.6l-10.1 2.5c-3.6.9-6.6.5-6.7-.9s2.7-3.4 6.1-4.5l2.6-.8c3.5-1.1 8.8-3.1 11.9-4.5 3-1.4 7.2-4.1 9.3-6.1 2.1-2 4.6-6.4 5.7-9.8 1.1-3.5 3.1-6.1 4.5-5.9zm-3.7-11.9l-.3 3.4c-.3 3.6-1.4 9.5-2.5 12.9v.1c-1.1 3.5-3.5 7.8-5.4 9.6-1.9 1.8-5.8 4.3-8.7 5.6-2.9 1.3-8.1 3.3-11.6 4.4l-2 .6c-3.5 1.1-6.4 1.1-6.5-.1-.1-1.2 2.7-2.8 6.3-3.7l2.2-.6c3.5-.9 8.8-3.4 11.7-5.6l.1-.1c2.9-2.2 6.7-6.3 8.5-9.1 1.7-2.8 2.4-7.4 1.5-10-.9-2.7.3-6.9 2.8-9.4s4.2-1.7 3.9 2zm-31.7 7.2c2-.3 4.8-1.2 6.3-2s3.4-.6 4.2.4c.8 1.1-.8 3-3.5 4.4-2.8 1.3-6.6 2.7-8.6 3.1-1.9.4-3.2-.7-2.8-2.4.4-1.7 2.4-3.3 4.4-3.5zm-2.4-4.8c.4-1.5 2.2-3.7 4-4.7 1.9-1.1 4-.6 4.8 1 .8 1.6.3 3.6-1.1 4.3-1.4.8-3.8 1.6-5.4 1.8-1.6.2-2.7-.9-2.3-2.4zm-.4 13.5c1.7-.5 3.5-.9 5.2-1.5 2-.7 4-1.5 5.8-2.4 3-1.4 6.2-2 7.1-1.1.9.8.5 2.6-.8 3.9-1.3 1.3-4.4 3.3-6.9 4.5-2.4 1.1-6.5 2.7-9 3.5-1.3.4-3.6.9-4.5-.5-.7-1.1-.4-3 .1-4.2.6-1.4 1.7-1.8 3-2.2zm1.8 9.1c2.7-.9 7-2.5 9.6-3.7 2.6-1.2 6-3.5 7.6-5 1.6-1.5 3.8-2.8 5-2.9 1.2 0 1.1 1.7-.2 3.8-1.3 2.1-4.6 5.5-7.3 7.5s-7.9 4.4-11.4 5.3l-1.4.3c-3.5.9-6.5.5-6.6-1-.1-1.5 2-3.5 4.7-4.3zm19.6-18.9c1.6-1.1 3.4-.5 4.1 1.4.7 1.9.1 3.5-1.2 3.5s-3.2-.6-4.1-1.4c-1-.8-.4-2.4 1.2-3.5zm6.7-15.5c2.1-2.1 4.5-3.1 5.3-2.1.8.9-.6 3.8-3.1 6.4l-1.6 1.6c-2.5 2.6-6.2 5.9-8.2 7.3-2 1.4-4.3 1.6-5.1.5-.9-1.1.8-3.8 3.7-6 2.9-2.2 5.3-4 5.3-3.9-.1 0 1.7-1.7 3.7-3.8zm-6.7-.1c.8 1.1-.8 3.8-3.6 5.9-2.8 2.2-5.8 2.7-6.5 1.1-.8-1.6.9-4.2 3.6-5.9 2.7-1.7 5.6-2.2 6.5-1.1zM61.5 31c.9 1.2-.7 3.7-3.7 5.5-3 1.8-7.1 4.3-9.3 5.5-2.2 1.2-5.3 1.8-7 1.2-1.7-.5-1.5-2.4.5-4.1 1.9-1.7 6.2-4.5 9.4-6.1l2.4-1.3c3.4-1.6 6.8-1.9 7.7-.7zm-5.2-6.9c1.1 1.5-.6 4.1-3.8 5.8l-2.3 1.2c-3.2 1.7-7.7 4.7-9.9 6.6-2.2 2-4.8 3.1-5.8 2.5-.9-.6.5-3 3.1-5.4 2.6-2.4 6.1-5.4 7.8-6.8 1.7-1.4 4.3-3.5 6-4.6 1.5-1.1 3.8-.8 4.9.7zm-21.4 89.2c2.4 1.5 4 3.3 3.5 4-.5.7-3.4 0-6.5-1.5s-4.7-3.3-3.5-4c1.1-.7 4 0 6.5 1.5zm-1.5-7.1c.8-1.4 3.1-.8 5.2 1.4s3.5 4.6 3 5.3c-.5.7-2.9.1-5.2-1.4-2.5-1.5-3.8-3.9-3-5.3zm-4.3-18.6c-1.6-.3-3.9-3.4-5-6.8l-1.6-4.9c-1.2-3.5.2-6.1 2.9-5.9 2.8.2 5.3 3.3 5.6 7l.4 4.6c.4 3.6-.7 6.3-2.3 6zm3.6 7.3c.2 2.4-1.5 3.1-3.9 1.6s-3.9-3.8-3.5-5c.4-1.2 2.2-1.9 3.9-1.6 1.7.4 3.2 2.6 3.5 5zM26 104c-2.3-1.8-3.7-4.4-3.2-5.7.5-1.3 3-1 5.5.7 2.6 1.7 4 4.2 3.2 5.7-.8 1.5-3.3 1.2-5.5-.7zm.1 6.4c-1.3.8-3.4.7-4.8-.2-1.4-.9-2-2.9-1.4-4.4.6-1.6 2.7-1.5 4.8.2 2 1.7 2.7 3.7 1.4 4.4zm6.5-54l-.9 5.1c-.6 3.6-2 6.5-3 6.4-1-.1-1.9-2.3-2-5-.1-2.7 0-7 .2-9.6.2-2.6 1.8-4.5 3.6-4.1 1.8.4 2.8 3.6 2.1 7.2zm-1.9-9.6c-2-.4-3.9-2-4.4-3.5-.5-1.5.3-2.8 1.7-2.8s3.6.6 4.8 1.4c1.2.8 2.1 2.4 1.8 3.5-.2 1.2-2 1.8-3.9 1.4zM44.6 8.7l.1-1.6c.3-3.6 1.6-6.5 3-6.3 1.3.2 2.9 3.3 3.5 6.9l.9 5c.6 3.6 0 7.4-1.5 8.4-1.4 1-3.5.1-4.6-1.9-1.1-2.2-1.7-6.8-1.4-10.5zM44.4 21c1 1.9.6 4.4-.9 5.6-1.5 1.2-4.9 4.2-7.6 6.7l-.5.5c-2.7 2.4-5.9 4.4-7.2 4.4-1.3 0-1.3-1.7-.1-3.9 1.2-2.1 4.2-6 6.8-8.7l3.2-3.3c2.4-2.6 5.3-3.2 6.3-1.3zm-18.8 3.5l5.2-5.5c2.5-2.7 5.8-4.4 7.3-3.9 1.5.5.7 3.1-1.9 5.7L33 24.1c-2.5 2.6-4.6 4.8-4.7 4.8 0 0-1 1.8-2.2 3.9-1.1 2.1-2.8 2.2-3.6.2-.8-2 .6-5.9 3.1-8.5zM11 18.1c-1.8-1.6-2.8-3.9-2.2-5.2.6-1.3 3.9-1.8 7.2-1 3.3.8 4.3 3.1 2.2 5.2-2.1 2.2-5.4 2.6-7.2 1zm5.7 15.1C18.1 32 20 33 21 35.4c1 2.4 2.3 6 2.9 8.1.6 2 1 6.1.7 9.1-.2 3-.4 5.4-.4 5.4s.1 2.2.2 4.8c.1 2.6-.9 4.7-2.2 4.6-1.3-.1-2.7-3.1-3-6.7-.3-3.6 0-8.7.6-11.4.7-2.7-.3-6.9-2.2-9.4-1.8-2.5-2.2-5.5-.9-6.7zM8.9 52.8v.2c-.1 3.6-1.3 5.9-2.6 4.9-1.3-.9-2.6-3.8-2.9-6.4-.3-2.5-.4-6.6-.2-9 .2-2.4 1-4.4 1.8-4.6.8-.2 2.1 1.6 2.8 4 .7 2.4 1.2 7.3 1.1 10.9zM7.2 35.1c-1.9.4-3.4-.2-3.3-1.3.1-1.1 1-2.3 2-2.7 1-.4 2.5.2 3.3 1.3.8 1.1-.1 2.3-2 2.7zm6.9 28.5c-1.8-1.3-3.1-5.3-3-8.9l.1-2.2c.1-3.6-.4-8.6-1.1-11-.8-2.4-.6-4.5.4-4.7.9-.2 1.8-.3 1.9-.1l.2.2s1.4 1.8 3 4c1.7 2.2 2.5 6 1.9 8.5-.6 2.5-.9 7.2-.6 10.5.2 3.3-1 4.9-2.8 3.7zm1.6 8.8c1.4-1.2 3.4.7 4.6 4.2l1.4 4.3c1.2 3.5.4 6.6-1.6 7-2 .4-4.3-2.2-5.2-5.8l-.2-1c-.8-3.6-.3-7.5 1-8.7zm-1.3 26l.3-1.1c1-3.5 3.4-6.7 5.3-7 1.9-.3 2.5 2.2 1.2 5.6l-2 5.4c-1.3 3.4-3.3 5.6-4.5 4.9-1.2-.9-1.3-4.3-.3-7.8zm-3.1 10.7c1.4-2.3 4.8.7 6.2 1.5l.1.1c3.1 1.9 8.3 4.8 11.6 6.4l.8.4c3.3 1.6 5 4.1 3.7 5.5-1.2 1.4-4.9 1.2-8.1-.4l-3.5-1.8c-3.3-1.7-7.3-4.2-9-5.8-1.5-1.4-3.1-3.9-1.8-5.9zm-3 7.9c.5-1.3 2.2-1.3 3.7.1 1.6 1.4 5.5 3.9 8.8 5.6l3.2 1.6c3.3 1.7 5.2 3.8 4.3 4.7-.9.9-3 .8-4.8-.3-1.8-1.1-5.9-3.5-9-5.3l-1.3-.7c-3.1-1.7-5.3-4.3-4.9-5.7zm26 34.5c0-.1-.2-.1-.3-.1-.2.1-2.2-1.8-4.6-4-2.4-2.3-6.6-5.7-9.3-7.7-2.7-2-6.8-4.9-8.9-6.4-2.2-1.6-3.9-4.7-3.9-7s2.6-2.7 5.8-.9l.3.2c3.2 1.8 7.4 4.3 9.3 5.5 2 1.2 5.4 4.6 7.6 7.4l6.2 7.9c2.2 2.9 2.7 5.3 1 5.3-1.8-.1-3.1-.1-3.2-.2zm9.4 17.1c-.1 2.9-1.2 6-2.5 6.9-1.3.9-2.9-1.2-3.5-4.8l-1.8-10.2c-.6-3.6.5-6.5 2.4-6.6 2 0 4 2.1 4.5 4.7.6 2.6.9 7.1.9 10zm1-12.5c-.5-2.5-1-4.5-1.1-4.5-.1 0-2-2.4-4.3-5.2l-6.8-8.7c-2.2-2.9-3.3-6.1-2.4-7.1.9-1 3.9.1 6.7 2.5l3.2 2.8c2.7 2.4 5.9 7.2 7 10.7l.8 2.4c1.1 3.5 1.1 7.5-.1 9-1.1 1.4-2.5.6-3-1.9zm5.1-21.2c2.5 2.7 5.3 7.7 6.3 11.3l.5 1.8c1 3.5.6 9.1-.8 12.5l-.2.5c-1.4 3.4-4.2 7.2-6.1 8.6-1.9 1.4-3.4.7-3.4-1.7.1-2.3 1.6-6 3.3-8.2 1.8-2.2 2.3-6.8 1.2-10.3l-1.4-4.3c-1.1-3.5-4.3-8.3-7-10.7-.6-.6-1.3-1.1-1.9-1.7-1.6-1.5-3.6-2.8-4.7-4.7-.7-1.2-.2-2.6.5-3.7.7-1 2.3-2.2 3.4-.9.8.9 1.5 1.7 1.4 1.7 0 0 2 2.2 4.5 4.9l4.4 4.9zm-4.4-14.4c-1.6 1.6-3.6 2.1-4.5 1.2-.8-1-.5-3.3.8-5.1 1.3-1.8 3.3-2.3 4.5-1.2 1.1 1.3.8 3.5-.8 5.1zm6.2-6.8c-1 1.2-3.8 0-6.4-2.6-.8-.8-1.5-1.6-2.3-2.4-1-1-2-2.1-3.1-2.9-.8-.6-1.6-1.1-2.2-1.9-2-2.7-2.4-6.4-2.7-9.5l-1.7-18.5c-.3-3.6-.1-9.5.6-13.1l2.2-12c.6-3.6 2.6-6.1 4.3-5.5 1.7.6 2.4 3.9 1.6 7.5l-1.6 6.7c-.8 3.6-1.3 9.4-1 13.1L40.8 93c.3 3.6 2.6 8.7 5.2 11.3l2.7 2.7c2.6 2.5 3.9 5.6 2.9 6.7zm1.5 6.3c-1-1.3-.8-3.5.5-5 1.2-1.5 4-4.2 6.1-6 2.2-1.8 6.6-4 9.8-4.9 1.5-.4 3.1-.8 4.6-1.3 2.4-.8 4.4-3.3 6.3-4.8l4.4-3.6c2.8-2.3 6.8-6.7 8.8-9.7l1.7-2.6c1.1-1.7 2.3-3.4 3.5-4.9.8-.9 2.2-2.3 2.6-.3.2 1 .1 2.1 0 3.1-.1 1.7-.9 4-2 6.1-.8 1.6-1.8 3.1-2.8 4.2l-1.3 1.4c-2.4 2.7-6.4 7.1-8.7 9.7-2.4 2.6-6.8 5.4-9.8 6.1-3 .7-7.5 2.6-10 4.2s-6.1 4.6-8.2 6.7c-2 2.2-4.5 2.9-5.5 1.6zm8.7 11.6l-1.5-2c-2.2-2.9-3.4-5.9-2.6-6.7.8-.8 3.3.5 5.6 2.9s5.7 6.7 7.5 9.6c1.8 2.9 1.6 5.7-.4 6.2s-3.9-.3-4.2-1.9c-.2-1.5-2.2-5.2-4.4-8.1zM73 164.7c-.2 3.3-2.8 7.9-5.6 10.1l-5.6 4.5c-2.8 2.3-6.4 6.9-7.9 10.2l-.9 2c-1.5 3.3-3.8 5.9-5.2 5.8-1.4-.2-2.3-3-2-6.3.3-3.3 2.8-7.8 5.6-10.1l5.6-4.5c2.8-2.3 6.4-6.9 7.9-10.2l.9-2c1.5-3.3 3.8-5.9 5.1-5.8 1.5.2 2.4 3 2.1 6.3zm1.1-15.2v.3c-.3 3.6-1.5 6.5-2.8 6.4s-2.8-2.7-3.3-5.7.8-6 2.8-6.5c2.1-.6 3.6 1.9 3.3 5.5zm5.1-8.2c-1.4-.5-4-3.4-6-6.5l-.3-.4c-1.9-3.1-5.4-7.7-7.9-10.1-2.4-2.5-3.7-5.2-2.8-6.1.3-.3.8-1.1 1.3-1.3 1.5-.6 2.7.8 3.7 1.6 1.5 1.3 4.3 4.8 6.2 7.7 1.9 2.9 4.5 7.7 5.9 10.7 1.3 2.9 1.2 4.9-.1 4.4zm6.5-.9c-.9.9-2.7-.9-4.2-4.1-1.4-3.2-4.2-8.3-6.2-11.4-2-3.1-4.8-6.6-6.2-7.8-1.4-1.2-1.5-3-.1-3.9 1.4-.9 4.5.6 6.8 3.4l1.8 2c2.4 2.8 5.3 7.8 6.6 11.3l.9 2.6c1.2 3.4 1.5 7 .6 7.9zm5.3-5.7c-1.1 1.1-2.9-.7-4.2-4.2l-.7-1.8c-1.2-3.4-4.2-8.5-6.6-11.3l-1.5-1.7c-2.4-2.8-2.4-5.5-.1-6.1 2.3-.6 5.4 1.7 6.9 5l5.3 11.9c1.6 3.4 2 7 .9 8.2zm5.2-5.6c-.8.9-2.7-1.1-4.2-4.4l-5-11.2c-1.5-3.3-1.4-7.5.2-9.3 1.6-1.8 3.5-.3 4.2 3.3l.2 1c.7 3.6 1.3 6.5 1.3 6.5s1.1 2.8 2.4 6.2c1.3 3.5 1.7 7.1.9 7.9zm3.2-5.8c-.8-.6-1.5-1.7-2.1-3.2-1.2-3.1-2.8-8.6-3.5-12.2l-.5-2.6c-.3-1.4-.5-2.8-.7-4.2-.1-.7 1.1-4.4 1.4-4.6.6-.5 3.3 1 3.8 1.8.4.6.7 1.3 1 2l.7 1.7.3.7c1.4 3.4 3.1 8.9 3.8 12.3.6 3.4 0 7.2-1.4 8.5-.9.7-1.8.6-2.8-.2zm0 18.4c.1-.6.4-1.3 1.1-2 2.1-2.1 5.4-2.6 7.2-1 1.8 1.6 2.8 3.9 2.2 5.2-.6 1.3-3.8 1.8-7.2 1-2-.5-3.2-1.5-3.3-2.7v-.5zm32.9 45.5c-1.3.2-3.3-2.4-4.4-5.8-1.1-3.4-3.7-7.8-5.7-9.8-2.1-2-6.2-4.7-9.2-6-3-1.3-5.5-2.5-5.5-2.5s-2.9-.9-6.3-2l-1.7-.5-1-.3c-3.5-1.1-6.2-3.2-6.1-4.5.1-1.4 3.1-1.8 6.6-.9l.5.1 9.6 2.4c3.5.9 7.8 3 9.4 4.6 1.7 1.7 4.9 5.3 7.3 8.1l.1.1c2.4 2.8 5.3 7.7 6.6 10.9 1.2 3.1 1.2 5.9-.2 6.1zm7.8-.1c-1.6-.2-4-3.1-5.3-6.5l-.2-.5c-1.3-3.4-4.4-8.4-6.7-11.2l-.4-.5c-2.4-2.8-5.8-6.5-7.6-8.3-1.8-1.8-6.2-4-9.7-4.9l-10.8-2.7-.3-.1c-1.5-.4-2.9-.8-4.3-1.5-.9-.5-2.2-1-2-2.2.1-.6.2-1.2.6-1.7 1.2-1.6 4.4-.6 6-.3.6.1 1.1.2 1.7.4l1.6.4c3.6.8 9 2.3 12.1 3.3 3.1 1 7.7 4 10.3 6.6l1.5 1.6c2.5 2.6 6.3 7.2 8.4 10.2l1.4 2.1c2.1 3 4.4 7.9 5.1 10.9.9 2.8.2 5.1-1.4 4.9zm-28-42.3c.6-1.2 3-1.7 5.3-1 2.4.6 4 2.3 3.6 3.7-.4 1.4-2.8 1.9-5.3 1-2.5-.8-4.1-2.5-3.6-3.7zm25.6 24.1l-.9-1.3c-2.1-3-5.8-7.6-8.4-10.2L127 156c-2.5-2.6-4.3-5.9-3.9-7.3.4-1.4 3-.7 5.9 1.6l3.3 2.7c2.8 2.3 6.8 6.7 8.8 9.7l1.1 1.7c2 3 2.6 6.5 1.4 7.7-1.1 1.2-3.8-.2-5.9-3.2zm6.1 12.2c-.6-2.5 0-5.7 1.3-7 1.4-1.4 3.3-1.9 4.3-1.3 1 .6.3 3.8-1.3 7-1.8 3.2-3.7 3.8-4.3 1.3zm12.4-1.4c-.7 1.6-1.2 2.9-1.2 2.9s-.5 1.8-1.2 4-2.7 3.5-4.5 2.8c-1.8-.7-1.8-3.9-.1-7.1l.8-1.5c1.7-3.2 4.1-5.5 5.2-5 1.3.6 1.7 2.3 1 3.9zm14.4-49.6c-2.5-1.2-5.1.7-5.8 4.3l-.9 4.3c-.7 3.6-2.3 9.3-3.6 12.7l-.9 2.6c-1.2 3.4-3.2 6-4.3 5.7-1.1-.3-1.1-3.4 0-6.8l.7-2.1c1.1-3.5 2-6.3 2.1-6.3 0 0 .6-2.9 1.4-6.5l1-4.7c.8-3.6 3.1-7.7 5.3-9.1 2.2-1.4 6.2-.7 9 1.5 2.8 2.3 4.2 4.8 3.2 5.5-1 .7-2 1.2-2.2 1-.2-.2-.3-.2-.4 0-.1.1-2.2-.8-4.6-2.1zm1.2 10.6l-2.1 5.5c-1.3 3.4-3.2 8.3-4.2 10.9-1 2.6-2.7 4.5-3.9 4.2-1.2-.3-1.1-3.4.1-6.8l.9-2.4c1.2-3.4 2.2-6.3 2.3-6.3 0 0 .6-3 1.4-6.5l.3-1.5c.7-3.6 2.8-5.8 4.5-4.9 1.6.9 2 4.4.7 7.8zm-13.9-7.7l-.9 4.3c-.8 3.6-2.3 9.3-3.4 12.8l-.4 1.3c-1.1 3.5-2.9 5.3-4 4.1-1.1-1.2-1.1-5 0-8.5l1.5-5c1.1-3.5 2-6.3 2-6.4 0 0 .5-2.7 1.2-6 .6-3.3 2.1-5.4 3.3-4.6 1.1.9 1.4 4.5.7 8zm-1.8 40.7c-1.3-.5-2.5-3.5-2.8-6.5-.2-3.1 1.8-5 4.6-4.3 2.8.7 4 3.6 2.8 6.5-1.3 2.8-3.4 4.8-4.6 4.3zm11.5 1.2c-1.7 3.2-4.5 5.8-6.1 5.7s-1.9-2.9-.4-6.3l1.5-3.5c1.4-3.4 4.1-5.5 5.9-4.8 1.8.7 1.9 3.9.2 7.1l-1.1 1.8zm5.1 6.6c-1.4 1.3-3.3 1.9-4.3 1.3-.9-.6-.3-3.8 1.4-7s3.6-3.8 4.3-1.3c.6 2.5 0 5.6-1.4 7zm1.2-24.6l-.3 1.7c-.7 3.6-2.7 6-4.5 5.3-1.8-.7-2.4-3.4-1.5-5.9 1-2.6 2.8-7.5 4.1-10.9l1.8-4.7c1.3-3.4 3.5-5.1 4.8-3.7 1.3 1.4 1.1 4.6-.4 7.1s-3.3 7.5-4 11.1zm6-9.8c1.4-2.3 3.7-3 5-1.6 1.3 1.4 1.4 5.4.2 8.8l-2.2 6c-1.3 3.4-3.6 6-5.3 5.8-1.7-.2-2.5-3.3-1.8-6.9l.3-1.5c.7-3.6 2.4-8.4 3.8-10.6zm-4.5-37.9l2.5 1.1c3.3 1.5 8.2 4.8 10.7 7.4l.1.1c2.6 2.6 3.5 5.1 2 5.6s-4.8-1.2-7.5-3.7l-.8-.8c-2.7-2.5-6.7-5.2-9-6.1-2.3-.9-4.1-2.6-4.1-3.9-.1-1.3 2.7-1.1 6.1.3zm-3.3 5.7c2.2.9 6.2 3.6 8.9 6 2.7 2.5 3.9 5.2 2.7 6-1.2.8-4.5-.4-7.3-2.7l-1.7-1.4c-2.8-2.3-7.1-2.9-9.6-1.2s-5.5 2.4-6.7 1.5c-1.2-.8.3-3.2 3.2-5.3l1-.7c3-2.1 7.3-3.1 9.5-2.2zm-30.4 30.7c.3-1.7.6-3.5 1-5.2l.5-2.6c.7-3.6 2.5-9.2 3.9-12.6l.3-.8c1.4-3.4 4.2-7.5 6.3-9.3 2-1.7 5.8-4.3 8.5-5.8 2.6-1.4 4.7-1.6 4.7-.3-.1 1.2-2.5 4-5.5 6.1-.8.6-1.6 1.1-2.5 1.7-2.2 1.5-4.7 2.6-5.7 5.2-.8 2-1.1 4.4-1.5 6.5-.7 3.6-2.1 9.4-3.2 12.8l-1.1 3.6c-1.1 3.5-2.7 5.5-3.6 4.5-1-1-2.3-2.4-2.1-3.8zm-5.7-1.2c2.4 2.6 6.3 7 8.7 9.7l1.3 1.4c2.4 2.7 4.6 7.4 4.8 10.3.2 2.9-.2 4.9-1 4.4s-3.1-3.5-5.1-6.5l-1.7-2.6c-2-3-6-7.4-8.8-9.7l-4.4-3.6c-1.2-1-2.3-2-3.5-2.9-1-.8-1.7-1.6-3-2-1.5-.4-2.9-.8-4.4-1.2-3.2-.9-7.6-3.1-9.8-4.9-2.2-1.8-5-4.6-6.2-6.1-1.2-1.5-1.1-3.8.3-5 1.4-1.3 3.9-.5 5.5 1.6s4.9 5.2 7.4 6.8c2.5 1.6 7 3.5 10 4.2 3.1.7 7.5 3.4 9.9 6.1zm.8-17.9c-1.4 3-3.6 5.2-4.7 4.9-1.2-.3-1.4-1.8-.4-3.3.9-1.5 2.4-4 3.3-5.6.9-1.6 2.3-2.6 3.1-2.2.6.3.1 3.1-1.3 6.2zm4.5-9.6c-.5 1.1-2.4 1.2-4.1.3-1.8-.9-2.2-2.6-1.1-3.8 1.2-1.2 3-1.3 4.1-.3 1.2 1 1.7 2.7 1.1 3.8zm22.8-18c-1 .8-2.4 1.2-3.6 1.8l-2.7 1.4c-3.2 1.7-7.8 4.8-10 7-2.3 2.2-5 3.2-6 2.3-1-.9-.4-3.1 1.5-4.9 1.8-1.8 5.3-3.6 7.7-4.2 2.4-.5 6.7-2.1 9.4-3.4l2.4-1.2c.5-.2 1.6-1.1 2.1-.4.4.6-.4 1.3-.8 1.6zm1.1-8.5c-.8-1.6-.3-3.6 1-4.3 1.4-.8 3.8-1.6 5.4-1.8 1.6-.2 2.7.8 2.3 2.4-.3 1.5-2.2 3.7-4 4.7-1.8 1.1-4 .7-4.7-1zm13.7 6.6c-1.2 1.8-3.9 2.6-6.1 1.8-2.2-.9-4.2-2-4.5-2.4-.3-.5.9-1.8 2.8-2.8 1.9-1.1 4.9-1.5 6.7-.9 1.8.5 2.3 2.4 1.1 4.3zm4.3 5.8c-.2-.1-1.3-.5-2.3-.9-1-.4-.9-2.3.3-4.1 1.2-1.9 2.3-3.4 2.4-3.3.1 0 .2 0 .2-.1s1.4-.2 3.1-.1c1.7 0 1.6 2-.1 4.4-1.7 2.3-3.4 4.2-3.6 4.1zm11-13.1c.5-2.5 1.9-3.4 3-1.9 1.2 1.4.7 5.2-1 8.5l-2.1 3.9c-1.7 3.2-4.3 5.4-5.7 4.8-1.4-.6-1-3.2 1-5.9s3.6-4.8 3.7-4.8c.1-.1.6-2.1 1.1-4.6zm-7-14.6c.6-3.6 2.2-5.8 3.5-4.8s2.4 4.1 2.5 6.9c.1 2.9-.3 7.4-.8 10-.5 2.6-2.6 4.7-4.5 4.7s-3-3-2.4-6.6l1.7-10.2zm4.8-45.8c-.3.6-2 1.6-3.9 2.3-1.9.7-5.4-1-7.9-3.6l-6.6-7c-2.5-2.7-4.6-4.8-4.6-4.8s-1.4-1.1-3-2.6c-1.6-1.4-4-4.2-5.4-6.2-1.3-2-1.6-4.2-.7-4.9.9-.7 3.6 1.1 5.9 3.9L168 9c2.3 2.8 6.2 7.4 8.6 10.1l.5.6c2.5 2.7 6 5.7 7.9 6.6 1.9.9 4.4 1.8 5.5 1.8 1.1.1 1.8.6 1.5 1.2z"/>
    <path d="M0 86.1v10.2l.2-.3c1.7-3.3 1.6-7.7-.2-9.9z"/>
    <path d="M.4 193.8l-.4-.4v3.2c1.1.8 2.5 1.6 4 2.3h7.4l-1.5-.4c-3.6-.9-7.8-3-9.5-4.7z"/>
    <path d="M181.7 12.3c-2.4-2.6-6.3-7-8.7-9.8L171.7 1c-.3-.3-.6-.7-.9-1.1h-3.7c.2.2.4.4.7.6.9.8 1.8 1.7 2.6 2.6l.8 1L180 14l.2.3c2.4 2.7 7 5.6 10.1 6.4 2.6.7 6.1 2 8.5 3.3v-2.6c-2.4-1.2-5.3-2.3-7.4-2.8-3-.8-7.4-3.6-9.7-6.3z"/>
    <path d="M189.8 0l.8.8c2.5 2.6 4.3 5.9 3.9 7.3-.4 1.4-3 .6-5.9-1.7l-3.3-2.7c-1.2-1-2.5-2.3-3.9-3.7h-3.2c1.8 2 3.7 4 5.3 5.3l4.4 3.6c2.8 2.3 5.1 4.3 5.1 4.4 0 .1 2.6.9 5.8 1.8h.1v-2.6c-1.7-.8-2.7-2.1-2.3-3.3.2-.8 1.1-1.3 2.3-1.4V4.3c-2.1-1.2-4.2-2.8-5.8-4.3h-3.3z"/>
  </g>
</svg>